<svg xmlns="http://www.w3.org/2000/svg" xmlns:xlink="http://www.w3.org/1999/xlink" width="500" zoomAndPan="magnify" viewBox="0 0 375 374.999991" height="500" preserveAspectRatio="xMidYMid meet" version="1.0"><defs><g/></defs><g fill="#eba812" fill-opacity="1"><g transform="translate(133.912626, 215.956258)"><g><path d="M 102.328125 -89.109375 C 102.328125 -84.921875 101.359375 -81.132812 99.421875 -77.75 C 97.484375 -74.363281 94.640625 -71.707031 90.890625 -69.78125 C 88.203125 -71.28125 85.328125 -72.457031 82.265625 -73.3125 C 79.203125 -74.175781 76.054688 -74.71875 72.828125 -74.9375 C 72.191406 -74.9375 71.789062 -74.640625 71.625 -74.046875 C 71.46875 -73.453125 71.710938 -73.046875 72.359375 -72.828125 C 79.554688 -71.222656 85.4375 -68.320312 90 -64.125 C 94.5625 -59.9375 97.804688 -55.101562 99.734375 -49.625 C 101.671875 -44.144531 102.34375 -38.503906 101.75 -32.703125 C 101.164062 -26.910156 99.234375 -21.539062 95.953125 -16.59375 C 92.679688 -11.65625 88.085938 -7.65625 82.171875 -4.59375 C 76.265625 -1.53125 69.070312 0 60.59375 0 L 25.296875 0 C 20.679688 0 16.4375 -1.34375 12.5625 -4.03125 C 8.695312 -6.71875 5.582031 -10.046875 3.21875 -14.015625 C 0.851562 -17.992188 -0.328125 -21.863281 -0.328125 -25.625 C -0.328125 -30.03125 0.476562 -33.867188 2.09375 -37.140625 C 3.707031 -40.421875 6.285156 -43.347656 9.828125 -45.921875 C 12.941406 -43.878906 16.484375 -42.320312 20.453125 -41.25 C 24.429688 -40.175781 28.300781 -39.640625 32.0625 -39.640625 C 32.707031 -39.640625 33.082031 -39.929688 33.1875 -40.515625 C 33.300781 -41.109375 33.035156 -41.515625 32.390625 -41.734375 C 30.128906 -41.953125 27.867188 -42.4375 25.609375 -43.1875 C 23.359375 -43.9375 21.160156 -44.847656 19.015625 -45.921875 C 13.753906 -48.710938 9.5625 -52.3125 6.4375 -56.71875 C 3.320312 -61.125 1.304688 -65.90625 0.390625 -71.0625 C -0.515625 -76.21875 -0.351562 -81.347656 0.875 -86.453125 C 2.113281 -91.554688 4.425781 -96.203125 7.8125 -100.390625 C 11.195312 -104.578125 15.679688 -107.957031 21.265625 -110.53125 C 26.859375 -113.113281 33.519531 -114.40625 41.25 -114.40625 L 76.21875 -114.40625 C 81.050781 -114.40625 85.425781 -113.273438 89.34375 -111.015625 C 93.269531 -108.765625 96.414062 -105.734375 98.78125 -101.921875 C 101.144531 -98.109375 102.328125 -93.835938 102.328125 -89.109375 Z M 102.328125 -89.109375 "/></g></g></g><g fill="#eba812" fill-opacity="1"><g transform="translate(142.325641, 263.574695)"><g><path d="M 11.453125 0.40625 C 9.429688 0.425781 7.675781 0.101562 6.1875 -0.5625 C 4.695312 -1.226562 3.273438 -2.222656 1.921875 -3.546875 C 1.785156 -3.660156 1.671875 -3.796875 1.578125 -3.953125 C 1.484375 -4.109375 1.4375 -4.296875 1.4375 -4.515625 C 1.4375 -4.828125 1.5625 -5.113281 1.8125 -5.375 C 2.070312 -5.644531 2.359375 -5.78125 2.671875 -5.78125 C 2.992188 -5.78125 3.285156 -5.648438 3.546875 -5.390625 C 4.585938 -4.273438 5.765625 -3.421875 7.078125 -2.828125 C 8.398438 -2.242188 9.820312 -1.953125 11.34375 -1.953125 C 12.613281 -1.953125 13.75 -2.148438 14.75 -2.546875 C 15.75 -2.953125 16.539062 -3.523438 17.125 -4.265625 C 17.707031 -5.015625 18 -5.878906 18 -6.859375 C 18 -8.085938 17.664062 -9.082031 17 -9.84375 C 16.34375 -10.601562 15.46875 -11.226562 14.375 -11.71875 C 13.28125 -12.207031 12.066406 -12.648438 10.734375 -13.046875 C 9.648438 -13.367188 8.613281 -13.734375 7.625 -14.140625 C 6.632812 -14.554688 5.753906 -15.0625 4.984375 -15.65625 C 4.210938 -16.257812 3.613281 -17 3.1875 -17.875 C 2.769531 -18.757812 2.5625 -19.828125 2.5625 -21.078125 C 2.5625 -22.484375 2.929688 -23.734375 3.671875 -24.828125 C 4.421875 -25.921875 5.476562 -26.78125 6.84375 -27.40625 C 8.21875 -28.03125 9.8125 -28.34375 11.625 -28.34375 C 13.1875 -28.34375 14.691406 -28.078125 16.140625 -27.546875 C 17.597656 -27.015625 18.753906 -26.226562 19.609375 -25.1875 C 20.003906 -24.757812 20.203125 -24.375 20.203125 -24.03125 C 20.203125 -23.769531 20.066406 -23.503906 19.796875 -23.234375 C 19.535156 -22.960938 19.242188 -22.828125 18.921875 -22.828125 C 18.660156 -22.828125 18.4375 -22.921875 18.25 -23.109375 C 17.789062 -23.671875 17.210938 -24.171875 16.515625 -24.609375 C 15.828125 -25.046875 15.0625 -25.382812 14.21875 -25.625 C 13.382812 -25.863281 12.519531 -25.984375 11.625 -25.984375 C 10.363281 -25.984375 9.234375 -25.789062 8.234375 -25.40625 C 7.242188 -25.019531 6.460938 -24.46875 5.890625 -23.75 C 5.316406 -23.03125 5.03125 -22.164062 5.03125 -21.15625 C 5.03125 -20.039062 5.347656 -19.125 5.984375 -18.40625 C 6.628906 -17.6875 7.46875 -17.09375 8.5 -16.625 C 9.539062 -16.15625 10.644531 -15.722656 11.8125 -15.328125 C 12.957031 -15.003906 14.054688 -14.632812 15.109375 -14.21875 C 16.160156 -13.8125 17.09375 -13.300781 17.90625 -12.6875 C 18.71875 -12.082031 19.351562 -11.3125 19.8125 -10.375 C 20.28125 -9.445312 20.515625 -8.273438 20.515625 -6.859375 C 20.515625 -5.503906 20.128906 -4.28125 19.359375 -3.1875 C 18.585938 -2.101562 17.53125 -1.238281 16.1875 -0.59375 C 14.84375 0.0390625 13.265625 0.375 11.453125 0.40625 Z M 11.453125 0.40625 "/></g></g></g><g fill="#eba812" fill-opacity="1"><g transform="translate(165.116627, 263.574695)"><g><path d="M 27.390625 -20.84375 C 27.679688 -20.84375 27.953125 -20.734375 28.203125 -20.515625 C 28.453125 -20.304688 28.578125 -20.015625 28.578125 -19.640625 C 28.578125 -19.554688 28.5625 -19.460938 28.53125 -19.359375 C 28.507812 -19.253906 28.488281 -19.175781 28.46875 -19.125 L 22.3125 -0.765625 C 22.207031 -0.523438 22.039062 -0.328125 21.8125 -0.171875 C 21.59375 -0.0234375 21.363281 0.03125 21.125 0 C 20.644531 -0.03125 20.285156 -0.285156 20.046875 -0.765625 L 14.40625 -14.015625 L 15.125 -13.859375 L 10.140625 -0.765625 C 9.929688 -0.285156 9.570312 -0.03125 9.0625 0 C 8.820312 0.03125 8.582031 -0.0234375 8.34375 -0.171875 C 8.101562 -0.328125 7.941406 -0.523438 7.859375 -0.765625 L 1.5625 -19.125 C 1.476562 -19.3125 1.4375 -19.484375 1.4375 -19.640625 C 1.4375 -19.984375 1.546875 -20.269531 1.765625 -20.5 C 1.992188 -20.726562 2.296875 -20.84375 2.671875 -20.84375 C 2.910156 -20.84375 3.128906 -20.773438 3.328125 -20.640625 C 3.535156 -20.503906 3.675781 -20.304688 3.75 -20.046875 L 9.421875 -3.03125 L 8.65625 -3.078125 L 13.8125 -16.046875 C 14.019531 -16.554688 14.394531 -16.8125 14.9375 -16.8125 C 15.195312 -16.8125 15.421875 -16.742188 15.609375 -16.609375 C 15.796875 -16.472656 15.941406 -16.285156 16.046875 -16.046875 L 21.515625 -3.03125 L 20.640625 -3 L 26.265625 -20.046875 C 26.429688 -20.578125 26.804688 -20.84375 27.390625 -20.84375 Z M 27.390625 -20.84375 "/></g></g></g><g fill="#eba812" fill-opacity="1"><g transform="translate(195.491288, 263.574695)"><g><path d="M 5.46875 -1.203125 C 5.46875 -0.878906 5.347656 -0.597656 5.109375 -0.359375 C 4.867188 -0.117188 4.585938 0 4.265625 0 C 3.921875 0 3.632812 -0.117188 3.40625 -0.359375 C 3.1875 -0.597656 3.078125 -0.878906 3.078125 -1.203125 L 3.078125 -19.5625 C 3.078125 -19.882812 3.1875 -20.164062 3.40625 -20.40625 C 3.632812 -20.644531 3.921875 -20.765625 4.265625 -20.765625 C 4.617188 -20.765625 4.90625 -20.644531 5.125 -20.40625 C 5.351562 -20.164062 5.46875 -19.882812 5.46875 -19.5625 Z M 4.265625 -23.421875 C 3.703125 -23.421875 3.28125 -23.546875 3 -23.796875 C 2.726562 -24.054688 2.59375 -24.425781 2.59375 -24.90625 L 2.59375 -25.296875 C 2.59375 -25.773438 2.742188 -26.140625 3.046875 -26.390625 C 3.359375 -26.648438 3.78125 -26.78125 4.3125 -26.78125 C 4.8125 -26.78125 5.203125 -26.648438 5.484375 -26.390625 C 5.765625 -26.140625 5.90625 -25.773438 5.90625 -25.296875 L 5.90625 -24.90625 C 5.90625 -24.425781 5.765625 -24.054688 5.484375 -23.796875 C 5.203125 -23.546875 4.796875 -23.421875 4.265625 -23.421875 Z M 4.265625 -23.421875 "/></g></g></g><g fill="#eba812" fill-opacity="1"><g transform="translate(204.392158, 263.574695)"><g><path d="M 10.546875 -29.375 C 10.941406 -29.375 11.367188 -29.332031 11.828125 -29.25 C 12.296875 -29.175781 12.703125 -29.039062 13.046875 -28.84375 C 13.398438 -28.644531 13.578125 -28.34375 13.578125 -27.9375 C 13.578125 -27.644531 13.46875 -27.382812 13.25 -27.15625 C 13.039062 -26.9375 12.800781 -26.828125 12.53125 -26.828125 C 12.269531 -26.828125 11.9375 -26.898438 11.53125 -27.046875 C 11.132812 -27.191406 10.710938 -27.265625 10.265625 -27.265625 C 9.703125 -27.265625 9.21875 -27.140625 8.8125 -26.890625 C 8.414062 -26.640625 8.109375 -26.28125 7.890625 -25.8125 C 7.679688 -25.34375 7.578125 -24.773438 7.578125 -24.109375 L 7.578125 -1.203125 C 7.578125 -0.878906 7.460938 -0.597656 7.234375 -0.359375 C 7.015625 -0.117188 6.734375 0 6.390625 0 C 6.046875 0 5.757812 -0.117188 5.53125 -0.359375 C 5.300781 -0.597656 5.1875 -0.878906 5.1875 -1.203125 L 5.1875 -24.109375 C 5.1875 -25.816406 5.6875 -27.117188 6.6875 -28.015625 C 7.6875 -28.921875 8.972656 -29.375 10.546875 -29.375 Z M 12.0625 -20 C 12.375 -20 12.632812 -19.890625 12.84375 -19.671875 C 13.0625 -19.460938 13.171875 -19.203125 13.171875 -18.890625 C 13.171875 -18.566406 13.0625 -18.296875 12.84375 -18.078125 C 12.632812 -17.867188 12.375 -17.765625 12.0625 -17.765625 L 2.28125 -17.765625 C 1.988281 -17.765625 1.726562 -17.875 1.5 -18.09375 C 1.269531 -18.320312 1.15625 -18.585938 1.15625 -18.890625 C 1.15625 -19.234375 1.269531 -19.503906 1.5 -19.703125 C 1.726562 -19.898438 1.988281 -20 2.28125 -20 Z M 12.0625 -20 "/></g></g></g><g fill="#eba812" fill-opacity="1"><g transform="translate(219.120486, 263.574695)"><g><path d="M 1.84375 -20.3125 L 11.140625 -20.3125 C 11.460938 -20.3125 11.726562 -20.195312 11.9375 -19.96875 C 12.144531 -19.75 12.25 -19.476562 12.25 -19.15625 C 12.25 -18.863281 12.144531 -18.609375 11.9375 -18.390625 C 11.726562 -18.179688 11.460938 -18.078125 11.140625 -18.078125 L 1.84375 -18.078125 C 1.519531 -18.078125 1.242188 -18.191406 1.015625 -18.421875 C 0.785156 -18.648438 0.671875 -18.910156 0.671875 -19.203125 C 0.671875 -19.523438 0.785156 -19.789062 1.015625 -20 C 1.242188 -20.207031 1.519531 -20.3125 1.84375 -20.3125 Z M 5.953125 -25.953125 C 6.296875 -25.953125 6.578125 -25.832031 6.796875 -25.59375 C 7.023438 -25.351562 7.140625 -25.070312 7.140625 -24.75 L 7.140625 -4.703125 C 7.140625 -3.960938 7.238281 -3.40625 7.4375 -3.03125 C 7.644531 -2.65625 7.90625 -2.40625 8.21875 -2.28125 C 8.539062 -2.164062 8.863281 -2.109375 9.1875 -2.109375 C 9.394531 -2.109375 9.582031 -2.140625 9.75 -2.203125 C 9.925781 -2.273438 10.125 -2.3125 10.34375 -2.3125 C 10.582031 -2.3125 10.785156 -2.21875 10.953125 -2.03125 C 11.128906 -1.84375 11.21875 -1.601562 11.21875 -1.3125 C 11.21875 -0.945312 11.003906 -0.632812 10.578125 -0.375 C 10.148438 -0.125 9.644531 0 9.0625 0 C 8.820312 0 8.460938 -0.0195312 7.984375 -0.0625 C 7.503906 -0.101562 7.007812 -0.25 6.5 -0.5 C 6 -0.75 5.582031 -1.191406 5.25 -1.828125 C 4.914062 -2.472656 4.75 -3.394531 4.75 -4.59375 L 4.75 -24.75 C 4.75 -25.070312 4.859375 -25.351562 5.078125 -25.59375 C 5.304688 -25.832031 5.597656 -25.953125 5.953125 -25.953125 Z M 5.953125 -25.953125 "/></g></g></g><g fill="#eba812" fill-opacity="1"><g transform="translate(76.404247, 284.178437)"><g><path d="M 5.578125 -6.953125 C 5.578125 -6.898438 5.554688 -6.832031 5.515625 -6.75 L 3.21875 -3.59375 L 3.21875 -0.3125 C 3.21875 -0.21875 3.1875 -0.140625 3.125 -0.078125 C 3.0625 -0.0234375 2.984375 0 2.890625 0 C 2.804688 0 2.734375 -0.0234375 2.671875 -0.078125 C 2.617188 -0.140625 2.59375 -0.21875 2.59375 -0.3125 L 2.59375 -3.578125 L 0.28125 -6.734375 C 0.226562 -6.796875 0.203125 -6.867188 0.203125 -6.953125 C 0.203125 -7.035156 0.234375 -7.109375 0.296875 -7.171875 C 0.367188 -7.234375 0.445312 -7.265625 0.53125 -7.265625 C 0.632812 -7.265625 0.71875 -7.210938 0.78125 -7.109375 L 2.921875 -4.203125 L 5 -7.109375 C 5.070312 -7.210938 5.160156 -7.265625 5.265625 -7.265625 C 5.347656 -7.265625 5.421875 -7.226562 5.484375 -7.15625 C 5.546875 -7.09375 5.578125 -7.023438 5.578125 -6.953125 Z M 5.578125 -6.953125 "/></g></g></g><g fill="#eba812" fill-opacity="1"><g transform="translate(88.882592, 284.178437)"><g><path d="M 5.6875 -2.640625 C 5.6875 -2.117188 5.570312 -1.648438 5.34375 -1.234375 C 5.113281 -0.816406 4.800781 -0.488281 4.40625 -0.25 C 4.007812 -0.0078125 3.566406 0.109375 3.078125 0.109375 C 2.585938 0.109375 2.140625 -0.0078125 1.734375 -0.25 C 1.335938 -0.488281 1.023438 -0.816406 0.796875 -1.234375 C 0.578125 -1.648438 0.46875 -2.117188 0.46875 -2.640625 C 0.46875 -3.148438 0.578125 -3.613281 0.796875 -4.03125 C 1.023438 -4.457031 1.335938 -4.789062 1.734375 -5.03125 C 2.140625 -5.269531 2.585938 -5.390625 3.078125 -5.390625 C 3.566406 -5.390625 4.007812 -5.269531 4.40625 -5.03125 C 4.800781 -4.789062 5.113281 -4.457031 5.34375 -4.03125 C 5.570312 -3.613281 5.6875 -3.148438 5.6875 -2.640625 Z M 5.0625 -2.640625 C 5.0625 -3.054688 4.972656 -3.425781 4.796875 -3.75 C 4.628906 -4.082031 4.390625 -4.34375 4.078125 -4.53125 C 3.773438 -4.71875 3.441406 -4.8125 3.078125 -4.8125 C 2.703125 -4.8125 2.363281 -4.71875 2.0625 -4.53125 C 1.757812 -4.34375 1.519531 -4.082031 1.34375 -3.75 C 1.164062 -3.425781 1.078125 -3.054688 1.078125 -2.640625 C 1.078125 -2.234375 1.164062 -1.863281 1.34375 -1.53125 C 1.519531 -1.207031 1.757812 -0.945312 2.0625 -0.75 C 2.363281 -0.5625 2.703125 -0.46875 3.078125 -0.46875 C 3.441406 -0.46875 3.773438 -0.5625 4.078125 -0.75 C 4.390625 -0.9375 4.628906 -1.191406 4.796875 -1.515625 C 4.972656 -1.847656 5.0625 -2.222656 5.0625 -2.640625 Z M 5.0625 -2.640625 "/></g></g></g><g fill="#eba812" fill-opacity="1"><g transform="translate(101.731772, 284.178437)"><g><path d="M 4.75 -5.234375 C 4.84375 -5.234375 4.914062 -5.203125 4.96875 -5.140625 C 5.03125 -5.085938 5.0625 -5.015625 5.0625 -4.921875 L 5.0625 -2.015625 C 5.0625 -1.347656 4.867188 -0.832031 4.484375 -0.46875 C 4.109375 -0.101562 3.585938 0.078125 2.921875 0.078125 C 2.265625 0.078125 1.75 -0.101562 1.375 -0.46875 C 1 -0.832031 0.8125 -1.347656 0.8125 -2.015625 L 0.8125 -4.921875 C 0.8125 -5.015625 0.835938 -5.085938 0.890625 -5.140625 C 0.953125 -5.203125 1.03125 -5.234375 1.125 -5.234375 C 1.21875 -5.234375 1.289062 -5.203125 1.34375 -5.140625 C 1.40625 -5.085938 1.4375 -5.015625 1.4375 -4.921875 L 1.4375 -2.015625 C 1.4375 -1.523438 1.566406 -1.148438 1.828125 -0.890625 C 2.085938 -0.628906 2.453125 -0.5 2.921875 -0.5 C 3.410156 -0.5 3.785156 -0.628906 4.046875 -0.890625 C 4.304688 -1.148438 4.4375 -1.523438 4.4375 -2.015625 L 4.4375 -4.921875 C 4.4375 -5.015625 4.46875 -5.085938 4.53125 -5.140625 C 4.59375 -5.203125 4.664062 -5.234375 4.75 -5.234375 Z M 4.75 -5.234375 "/></g></g></g><g fill="#eba812" fill-opacity="1"><g transform="translate(114.313125, 284.178437)"><g><path d="M 3.28125 -5.390625 C 3.414062 -5.390625 3.535156 -5.363281 3.640625 -5.3125 C 3.753906 -5.257812 3.8125 -5.175781 3.8125 -5.0625 C 3.8125 -4.96875 3.785156 -4.890625 3.734375 -4.828125 C 3.679688 -4.773438 3.613281 -4.75 3.53125 -4.75 C 3.5 -4.75 3.429688 -4.765625 3.328125 -4.796875 C 3.234375 -4.828125 3.140625 -4.84375 3.046875 -4.84375 C 2.796875 -4.84375 2.546875 -4.742188 2.296875 -4.546875 C 2.046875 -4.359375 1.835938 -4.109375 1.671875 -3.796875 C 1.515625 -3.484375 1.4375 -3.171875 1.4375 -2.859375 L 1.4375 -0.3125 C 1.4375 -0.21875 1.40625 -0.140625 1.34375 -0.078125 C 1.289062 -0.0234375 1.21875 0 1.125 0 C 1.03125 0 0.953125 -0.0234375 0.890625 -0.078125 C 0.835938 -0.140625 0.8125 -0.21875 0.8125 -0.3125 L 0.8125 -4.921875 C 0.8125 -5.015625 0.835938 -5.085938 0.890625 -5.140625 C 0.953125 -5.203125 1.03125 -5.234375 1.125 -5.234375 C 1.21875 -5.234375 1.289062 -5.203125 1.34375 -5.140625 C 1.40625 -5.085938 1.4375 -5.015625 1.4375 -4.921875 L 1.4375 -4.015625 C 1.59375 -4.410156 1.828125 -4.738281 2.140625 -5 C 2.460938 -5.257812 2.84375 -5.390625 3.28125 -5.390625 Z M 3.28125 -5.390625 "/></g></g></g><g fill="#eba812" fill-opacity="1"><g transform="translate(134.531481, 284.178437)"><g><path d="M 0.515625 -0.828125 C 0.460938 -0.921875 0.4375 -1 0.4375 -1.0625 C 0.4375 -1.15625 0.476562 -1.222656 0.5625 -1.265625 C 0.601562 -1.304688 0.660156 -1.328125 0.734375 -1.328125 C 0.816406 -1.328125 0.890625 -1.296875 0.953125 -1.234375 C 1.359375 -0.691406 1.898438 -0.421875 2.578125 -0.421875 C 2.910156 -0.421875 3.195312 -0.5 3.4375 -0.65625 C 3.6875 -0.8125 3.8125 -1.035156 3.8125 -1.328125 C 3.8125 -1.617188 3.695312 -1.835938 3.46875 -1.984375 C 3.238281 -2.128906 2.921875 -2.25 2.515625 -2.34375 C 1.941406 -2.488281 1.492188 -2.675781 1.171875 -2.90625 C 0.847656 -3.144531 0.6875 -3.484375 0.6875 -3.921875 C 0.6875 -4.210938 0.765625 -4.46875 0.921875 -4.6875 C 1.085938 -4.90625 1.304688 -5.078125 1.578125 -5.203125 C 1.847656 -5.328125 2.15625 -5.390625 2.5 -5.390625 C 2.789062 -5.390625 3.085938 -5.332031 3.390625 -5.21875 C 3.691406 -5.101562 3.945312 -4.925781 4.15625 -4.6875 C 4.21875 -4.632812 4.25 -4.5625 4.25 -4.46875 C 4.25 -4.394531 4.210938 -4.328125 4.140625 -4.265625 C 4.097656 -4.222656 4.035156 -4.203125 3.953125 -4.203125 C 3.890625 -4.203125 3.832031 -4.226562 3.78125 -4.28125 C 3.613281 -4.46875 3.414062 -4.609375 3.1875 -4.703125 C 2.957031 -4.796875 2.710938 -4.84375 2.453125 -4.84375 C 2.128906 -4.84375 1.851562 -4.765625 1.625 -4.609375 C 1.394531 -4.460938 1.28125 -4.238281 1.28125 -3.9375 C 1.289062 -3.664062 1.414062 -3.457031 1.65625 -3.3125 C 1.894531 -3.164062 2.242188 -3.035156 2.703125 -2.921875 C 3.054688 -2.828125 3.347656 -2.722656 3.578125 -2.609375 C 3.816406 -2.503906 4.007812 -2.351562 4.15625 -2.15625 C 4.3125 -1.957031 4.390625 -1.691406 4.390625 -1.359375 C 4.390625 -0.910156 4.207031 -0.550781 3.84375 -0.28125 C 3.488281 -0.0195312 3.046875 0.109375 2.515625 0.109375 C 1.679688 0.109375 1.015625 -0.203125 0.515625 -0.828125 Z M 0.515625 -0.828125 "/></g></g></g><g fill="#eba812" fill-opacity="1"><g transform="translate(146.082763, 284.178437)"><g><path d="M 7.078125 -5.390625 C 7.160156 -5.390625 7.234375 -5.359375 7.296875 -5.296875 C 7.359375 -5.242188 7.390625 -5.171875 7.390625 -5.078125 C 7.390625 -5.066406 7.378906 -5.019531 7.359375 -4.9375 L 5.765625 -0.203125 C 5.734375 -0.140625 5.6875 -0.0859375 5.625 -0.046875 C 5.570312 -0.00390625 5.515625 0.0078125 5.453125 0 C 5.390625 0 5.332031 -0.015625 5.28125 -0.046875 C 5.238281 -0.0859375 5.203125 -0.140625 5.171875 -0.203125 L 3.828125 -3.375 L 2.625 -0.203125 C 2.59375 -0.140625 2.550781 -0.0859375 2.5 -0.046875 C 2.445312 -0.015625 2.394531 0 2.34375 0 C 2.269531 0.0078125 2.203125 -0.00390625 2.140625 -0.046875 C 2.085938 -0.0859375 2.050781 -0.140625 2.03125 -0.203125 L 0.40625 -4.9375 C 0.382812 -4.976562 0.375 -5.023438 0.375 -5.078125 C 0.375 -5.160156 0.40625 -5.234375 0.46875 -5.296875 C 0.53125 -5.359375 0.601562 -5.390625 0.6875 -5.390625 C 0.75 -5.390625 0.804688 -5.367188 0.859375 -5.328125 C 0.910156 -5.285156 0.945312 -5.234375 0.96875 -5.171875 L 2.34375 -1.0625 L 3.5625 -4.140625 C 3.613281 -4.273438 3.710938 -4.34375 3.859375 -4.34375 C 3.992188 -4.34375 4.085938 -4.273438 4.140625 -4.140625 L 5.4375 -1.078125 L 6.78125 -5.171875 C 6.820312 -5.316406 6.921875 -5.390625 7.078125 -5.390625 Z M 7.078125 -5.390625 "/></g></g></g><g fill="#eba812" fill-opacity="1"><g transform="translate(160.549164, 284.178437)"><g><path d="M 1.40625 -0.3125 C 1.40625 -0.21875 1.375 -0.140625 1.3125 -0.078125 C 1.257812 -0.0234375 1.191406 0 1.109375 0 C 1.015625 0 0.9375 -0.0234375 0.875 -0.078125 C 0.820312 -0.140625 0.796875 -0.21875 0.796875 -0.3125 L 0.796875 -5.046875 C 0.796875 -5.140625 0.820312 -5.210938 0.875 -5.265625 C 0.9375 -5.328125 1.015625 -5.359375 1.109375 -5.359375 C 1.191406 -5.359375 1.257812 -5.328125 1.3125 -5.265625 C 1.375 -5.210938 1.40625 -5.140625 1.40625 -5.046875 Z M 1.109375 -6.046875 C 0.972656 -6.046875 0.863281 -6.078125 0.78125 -6.140625 C 0.707031 -6.210938 0.671875 -6.3125 0.671875 -6.4375 L 0.671875 -6.53125 C 0.671875 -6.65625 0.707031 -6.75 0.78125 -6.8125 C 0.863281 -6.882812 0.976562 -6.921875 1.125 -6.921875 C 1.394531 -6.921875 1.53125 -6.789062 1.53125 -6.53125 L 1.53125 -6.4375 C 1.53125 -6.3125 1.492188 -6.210938 1.421875 -6.140625 C 1.347656 -6.078125 1.242188 -6.046875 1.109375 -6.046875 Z M 1.109375 -6.046875 "/></g></g></g><g fill="#eba812" fill-opacity="1"><g transform="translate(169.473753, 284.178437)"><g><path d="M 2.65625 -7.046875 C 2.4375 -7.046875 2.265625 -6.972656 2.140625 -6.828125 C 2.015625 -6.679688 1.953125 -6.484375 1.953125 -6.234375 L 1.953125 -5.171875 L 3.109375 -5.171875 C 3.191406 -5.171875 3.257812 -5.140625 3.3125 -5.078125 C 3.375 -5.023438 3.40625 -4.957031 3.40625 -4.875 C 3.40625 -4.789062 3.375 -4.722656 3.3125 -4.671875 C 3.257812 -4.617188 3.191406 -4.59375 3.109375 -4.59375 L 1.953125 -4.59375 L 1.953125 -0.3125 C 1.953125 -0.21875 1.921875 -0.140625 1.859375 -0.078125 C 1.804688 -0.0234375 1.738281 0 1.65625 0 C 1.5625 0 1.484375 -0.0234375 1.421875 -0.078125 C 1.367188 -0.140625 1.34375 -0.21875 1.34375 -0.3125 L 1.34375 -4.59375 L 0.59375 -4.59375 C 0.507812 -4.59375 0.4375 -4.617188 0.375 -4.671875 C 0.320312 -4.734375 0.296875 -4.800781 0.296875 -4.875 C 0.296875 -4.96875 0.320312 -5.039062 0.375 -5.09375 C 0.4375 -5.144531 0.507812 -5.171875 0.59375 -5.171875 L 1.34375 -5.171875 L 1.34375 -6.234375 C 1.34375 -6.660156 1.46875 -6.992188 1.71875 -7.234375 C 1.96875 -7.472656 2.300781 -7.59375 2.71875 -7.59375 C 2.914062 -7.59375 3.09375 -7.5625 3.25 -7.5 C 3.414062 -7.445312 3.5 -7.351562 3.5 -7.21875 C 3.5 -7.132812 3.472656 -7.066406 3.421875 -7.015625 C 3.367188 -6.960938 3.304688 -6.9375 3.234375 -6.9375 C 3.171875 -6.9375 3.097656 -6.953125 3.015625 -6.984375 C 2.859375 -7.023438 2.738281 -7.046875 2.65625 -7.046875 Z M 2.65625 -7.046875 "/></g></g></g><g fill="#eba812" fill-opacity="1"><g transform="translate(179.830151, 284.178437)"><g><path d="M 1.84375 -4.671875 L 1.84375 -1.21875 C 1.84375 -0.957031 1.890625 -0.78125 1.984375 -0.6875 C 2.085938 -0.59375 2.21875 -0.546875 2.375 -0.546875 C 2.414062 -0.546875 2.46875 -0.550781 2.53125 -0.5625 C 2.59375 -0.582031 2.640625 -0.59375 2.671875 -0.59375 C 2.734375 -0.59375 2.785156 -0.566406 2.828125 -0.515625 C 2.867188 -0.460938 2.890625 -0.40625 2.890625 -0.34375 C 2.890625 -0.25 2.832031 -0.164062 2.71875 -0.09375 C 2.613281 -0.03125 2.488281 0 2.34375 0 C 2.15625 0 1.988281 -0.015625 1.84375 -0.046875 C 1.695312 -0.0859375 1.554688 -0.191406 1.421875 -0.359375 C 1.296875 -0.535156 1.234375 -0.8125 1.234375 -1.1875 L 1.234375 -4.671875 L 0.46875 -4.671875 C 0.382812 -4.671875 0.3125 -4.695312 0.25 -4.75 C 0.195312 -4.8125 0.171875 -4.878906 0.171875 -4.953125 C 0.171875 -5.035156 0.195312 -5.101562 0.25 -5.15625 C 0.3125 -5.21875 0.382812 -5.25 0.46875 -5.25 L 1.234375 -5.25 L 1.234375 -6.390625 C 1.234375 -6.484375 1.257812 -6.554688 1.3125 -6.609375 C 1.375 -6.671875 1.445312 -6.703125 1.53125 -6.703125 C 1.625 -6.703125 1.695312 -6.671875 1.75 -6.609375 C 1.8125 -6.554688 1.84375 -6.484375 1.84375 -6.390625 L 1.84375 -5.25 L 2.875 -5.25 C 2.945312 -5.25 3.015625 -5.21875 3.078125 -5.15625 C 3.140625 -5.09375 3.171875 -5.023438 3.171875 -4.953125 C 3.171875 -4.867188 3.140625 -4.800781 3.078125 -4.75 C 3.023438 -4.695312 2.957031 -4.671875 2.875 -4.671875 Z M 1.84375 -4.671875 "/></g></g></g><g fill="#eba812" fill-opacity="1"><g transform="translate(190.042343, 284.178437)"><g/></g></g><g fill="#eba812" fill-opacity="1"><g transform="translate(199.574687, 284.178437)"><g><path d="M 3.28125 -5.390625 C 3.414062 -5.390625 3.535156 -5.363281 3.640625 -5.3125 C 3.753906 -5.257812 3.8125 -5.175781 3.8125 -5.0625 C 3.8125 -4.96875 3.785156 -4.890625 3.734375 -4.828125 C 3.679688 -4.773438 3.613281 -4.75 3.53125 -4.75 C 3.5 -4.75 3.429688 -4.765625 3.328125 -4.796875 C 3.234375 -4.828125 3.140625 -4.84375 3.046875 -4.84375 C 2.796875 -4.84375 2.546875 -4.742188 2.296875 -4.546875 C 2.046875 -4.359375 1.835938 -4.109375 1.671875 -3.796875 C 1.515625 -3.484375 1.4375 -3.171875 1.4375 -2.859375 L 1.4375 -0.3125 C 1.4375 -0.21875 1.40625 -0.140625 1.34375 -0.078125 C 1.289062 -0.0234375 1.21875 0 1.125 0 C 1.03125 0 0.953125 -0.0234375 0.890625 -0.078125 C 0.835938 -0.140625 0.8125 -0.21875 0.8125 -0.3125 L 0.8125 -4.921875 C 0.8125 -5.015625 0.835938 -5.085938 0.890625 -5.140625 C 0.953125 -5.203125 1.03125 -5.234375 1.125 -5.234375 C 1.21875 -5.234375 1.289062 -5.203125 1.34375 -5.140625 C 1.40625 -5.085938 1.4375 -5.015625 1.4375 -4.921875 L 1.4375 -4.015625 C 1.59375 -4.410156 1.828125 -4.738281 2.140625 -5 C 2.460938 -5.257812 2.84375 -5.390625 3.28125 -5.390625 Z M 3.28125 -5.390625 "/></g></g></g><g fill="#eba812" fill-opacity="1"><g transform="translate(210.26071, 284.178437)"><g><path d="M 5.265625 -2.9375 C 5.265625 -2.851562 5.234375 -2.78125 5.171875 -2.71875 C 5.109375 -2.664062 5.035156 -2.640625 4.953125 -2.640625 L 1.0625 -2.640625 C 1.0625 -2.222656 1.144531 -1.851562 1.3125 -1.53125 C 1.476562 -1.207031 1.71875 -0.945312 2.03125 -0.75 C 2.34375 -0.5625 2.710938 -0.46875 3.140625 -0.46875 C 3.472656 -0.46875 3.769531 -0.535156 4.03125 -0.671875 C 4.289062 -0.816406 4.5 -0.992188 4.65625 -1.203125 C 4.738281 -1.265625 4.8125 -1.296875 4.875 -1.296875 C 4.945312 -1.296875 5.007812 -1.269531 5.0625 -1.21875 C 5.113281 -1.164062 5.140625 -1.101562 5.140625 -1.03125 C 5.140625 -0.957031 5.109375 -0.882812 5.046875 -0.8125 C 4.828125 -0.539062 4.550781 -0.316406 4.21875 -0.140625 C 3.882812 0.0234375 3.53125 0.109375 3.15625 0.109375 C 2.625 0.109375 2.15625 -0.00390625 1.75 -0.234375 C 1.34375 -0.460938 1.023438 -0.78125 0.796875 -1.1875 C 0.578125 -1.601562 0.46875 -2.078125 0.46875 -2.609375 C 0.46875 -3.171875 0.578125 -3.660156 0.796875 -4.078125 C 1.023438 -4.503906 1.320312 -4.828125 1.6875 -5.046875 C 2.0625 -5.273438 2.457031 -5.390625 2.875 -5.390625 C 3.289062 -5.390625 3.675781 -5.289062 4.03125 -5.09375 C 4.394531 -4.90625 4.691406 -4.625 4.921875 -4.25 C 5.148438 -3.882812 5.265625 -3.445312 5.265625 -2.9375 Z M 2.875 -4.796875 C 2.476562 -4.796875 2.109375 -4.65625 1.765625 -4.375 C 1.429688 -4.101562 1.210938 -3.710938 1.109375 -3.203125 L 4.625 -3.203125 L 4.625 -3.28125 C 4.59375 -3.59375 4.488281 -3.863281 4.3125 -4.09375 C 4.144531 -4.320312 3.929688 -4.492188 3.671875 -4.609375 C 3.421875 -4.734375 3.15625 -4.796875 2.875 -4.796875 Z M 2.875 -4.796875 "/></g></g></g><g fill="#eba812" fill-opacity="1"><g transform="translate(222.708162, 284.178437)"><g><path d="M 0.515625 -0.828125 C 0.460938 -0.921875 0.4375 -1 0.4375 -1.0625 C 0.4375 -1.15625 0.476562 -1.222656 0.5625 -1.265625 C 0.601562 -1.304688 0.660156 -1.328125 0.734375 -1.328125 C 0.816406 -1.328125 0.890625 -1.296875 0.953125 -1.234375 C 1.359375 -0.691406 1.898438 -0.421875 2.578125 -0.421875 C 2.910156 -0.421875 3.195312 -0.5 3.4375 -0.65625 C 3.6875 -0.8125 3.8125 -1.035156 3.8125 -1.328125 C 3.8125 -1.617188 3.695312 -1.835938 3.46875 -1.984375 C 3.238281 -2.128906 2.921875 -2.25 2.515625 -2.34375 C 1.941406 -2.488281 1.492188 -2.675781 1.171875 -2.90625 C 0.847656 -3.144531 0.6875 -3.484375 0.6875 -3.921875 C 0.6875 -4.210938 0.765625 -4.46875 0.921875 -4.6875 C 1.085938 -4.90625 1.304688 -5.078125 1.578125 -5.203125 C 1.847656 -5.328125 2.15625 -5.390625 2.5 -5.390625 C 2.789062 -5.390625 3.085938 -5.332031 3.390625 -5.21875 C 3.691406 -5.101562 3.945312 -4.925781 4.15625 -4.6875 C 4.21875 -4.632812 4.25 -4.5625 4.25 -4.46875 C 4.25 -4.394531 4.210938 -4.328125 4.140625 -4.265625 C 4.097656 -4.222656 4.035156 -4.203125 3.953125 -4.203125 C 3.890625 -4.203125 3.832031 -4.226562 3.78125 -4.28125 C 3.613281 -4.46875 3.414062 -4.609375 3.1875 -4.703125 C 2.957031 -4.796875 2.710938 -4.84375 2.453125 -4.84375 C 2.128906 -4.84375 1.851562 -4.765625 1.625 -4.609375 C 1.394531 -4.460938 1.28125 -4.238281 1.28125 -3.9375 C 1.289062 -3.664062 1.414062 -3.457031 1.65625 -3.3125 C 1.894531 -3.164062 2.242188 -3.035156 2.703125 -2.921875 C 3.054688 -2.828125 3.347656 -2.722656 3.578125 -2.609375 C 3.816406 -2.503906 4.007812 -2.351562 4.15625 -2.15625 C 4.3125 -1.957031 4.390625 -1.691406 4.390625 -1.359375 C 4.390625 -0.910156 4.207031 -0.550781 3.84375 -0.28125 C 3.488281 -0.0195312 3.046875 0.109375 2.515625 0.109375 C 1.679688 0.109375 1.015625 -0.203125 0.515625 -0.828125 Z M 0.515625 -0.828125 "/></g></g></g><g fill="#eba812" fill-opacity="1"><g transform="translate(234.25945, 284.178437)"><g><path d="M 3.328125 -5.3125 C 3.773438 -5.3125 4.179688 -5.195312 4.546875 -4.96875 C 4.921875 -4.738281 5.210938 -4.414062 5.421875 -4 C 5.640625 -3.59375 5.75 -3.132812 5.75 -2.625 C 5.75 -2.113281 5.640625 -1.648438 5.421875 -1.234375 C 5.210938 -0.828125 4.925781 -0.503906 4.5625 -0.265625 C 4.195312 -0.0351562 3.785156 0.078125 3.328125 0.078125 C 2.929688 0.078125 2.566406 -0.015625 2.234375 -0.203125 C 1.898438 -0.398438 1.632812 -0.65625 1.4375 -0.96875 L 1.4375 1.75 C 1.4375 1.84375 1.40625 1.914062 1.34375 1.96875 C 1.289062 2.03125 1.21875 2.0625 1.125 2.0625 C 1.03125 2.0625 0.953125 2.03125 0.890625 1.96875 C 0.835938 1.914062 0.8125 1.84375 0.8125 1.75 L 0.8125 -4.96875 C 0.8125 -5.0625 0.835938 -5.140625 0.890625 -5.203125 C 0.953125 -5.265625 1.03125 -5.296875 1.125 -5.296875 C 1.21875 -5.296875 1.289062 -5.265625 1.34375 -5.203125 C 1.40625 -5.140625 1.4375 -5.0625 1.4375 -4.96875 L 1.4375 -4.265625 C 1.613281 -4.585938 1.867188 -4.84375 2.203125 -5.03125 C 2.546875 -5.21875 2.921875 -5.3125 3.328125 -5.3125 Z M 3.265625 -0.5 C 3.628906 -0.5 3.953125 -0.585938 4.234375 -0.765625 C 4.515625 -0.953125 4.734375 -1.207031 4.890625 -1.53125 C 5.054688 -1.851562 5.140625 -2.21875 5.140625 -2.625 C 5.140625 -3.03125 5.054688 -3.390625 4.890625 -3.703125 C 4.734375 -4.023438 4.515625 -4.273438 4.234375 -4.453125 C 3.953125 -4.640625 3.628906 -4.734375 3.265625 -4.734375 C 2.898438 -4.734375 2.570312 -4.644531 2.28125 -4.46875 C 2 -4.289062 1.773438 -4.039062 1.609375 -3.71875 C 1.453125 -3.394531 1.375 -3.03125 1.375 -2.625 C 1.375 -2.21875 1.453125 -1.851562 1.609375 -1.53125 C 1.773438 -1.207031 2 -0.953125 2.28125 -0.765625 C 2.570312 -0.585938 2.898438 -0.5 3.265625 -0.5 Z M 3.265625 -0.5 "/></g></g></g><g fill="#eba812" fill-opacity="1"><g transform="translate(247.180733, 284.178437)"><g><path d="M 5.6875 -2.640625 C 5.6875 -2.117188 5.570312 -1.648438 5.34375 -1.234375 C 5.113281 -0.816406 4.800781 -0.488281 4.40625 -0.25 C 4.007812 -0.0078125 3.566406 0.109375 3.078125 0.109375 C 2.585938 0.109375 2.140625 -0.0078125 1.734375 -0.25 C 1.335938 -0.488281 1.023438 -0.816406 0.796875 -1.234375 C 0.578125 -1.648438 0.46875 -2.117188 0.46875 -2.640625 C 0.46875 -3.148438 0.578125 -3.613281 0.796875 -4.03125 C 1.023438 -4.457031 1.335938 -4.789062 1.734375 -5.03125 C 2.140625 -5.269531 2.585938 -5.390625 3.078125 -5.390625 C 3.566406 -5.390625 4.007812 -5.269531 4.40625 -5.03125 C 4.800781 -4.789062 5.113281 -4.457031 5.34375 -4.03125 C 5.570312 -3.613281 5.6875 -3.148438 5.6875 -2.640625 Z M 5.0625 -2.640625 C 5.0625 -3.054688 4.972656 -3.425781 4.796875 -3.75 C 4.628906 -4.082031 4.390625 -4.34375 4.078125 -4.53125 C 3.773438 -4.71875 3.441406 -4.8125 3.078125 -4.8125 C 2.703125 -4.8125 2.363281 -4.71875 2.0625 -4.53125 C 1.757812 -4.34375 1.519531 -4.082031 1.34375 -3.75 C 1.164062 -3.425781 1.078125 -3.054688 1.078125 -2.640625 C 1.078125 -2.234375 1.164062 -1.863281 1.34375 -1.53125 C 1.519531 -1.207031 1.757812 -0.945312 2.0625 -0.75 C 2.363281 -0.5625 2.703125 -0.46875 3.078125 -0.46875 C 3.441406 -0.46875 3.773438 -0.5625 4.078125 -0.75 C 4.390625 -0.9375 4.628906 -1.191406 4.796875 -1.515625 C 4.972656 -1.847656 5.0625 -2.222656 5.0625 -2.640625 Z M 5.0625 -2.640625 "/></g></g></g><g fill="#eba812" fill-opacity="1"><g transform="translate(260.029907, 284.178437)"><g><path d="M 3.296875 -5.390625 C 3.941406 -5.390625 4.410156 -5.203125 4.703125 -4.828125 C 5.003906 -4.453125 5.15625 -3.957031 5.15625 -3.34375 L 5.15625 -0.3125 C 5.15625 -0.21875 5.125 -0.140625 5.0625 -0.078125 C 5 -0.0234375 4.925781 0 4.84375 0 C 4.757812 0 4.6875 -0.0234375 4.625 -0.078125 C 4.5625 -0.140625 4.53125 -0.21875 4.53125 -0.3125 L 4.53125 -3.3125 C 4.53125 -3.757812 4.421875 -4.117188 4.203125 -4.390625 C 3.984375 -4.671875 3.640625 -4.8125 3.171875 -4.8125 C 2.867188 -4.8125 2.582031 -4.742188 2.3125 -4.609375 C 2.050781 -4.472656 1.835938 -4.289062 1.671875 -4.0625 C 1.515625 -3.832031 1.4375 -3.582031 1.4375 -3.3125 L 1.4375 -0.3125 C 1.4375 -0.21875 1.40625 -0.140625 1.34375 -0.078125 C 1.289062 -0.0234375 1.21875 0 1.125 0 C 1.03125 0 0.953125 -0.0234375 0.890625 -0.078125 C 0.835938 -0.140625 0.8125 -0.21875 0.8125 -0.3125 L 0.8125 -4.921875 C 0.8125 -5.015625 0.835938 -5.085938 0.890625 -5.140625 C 0.953125 -5.203125 1.03125 -5.234375 1.125 -5.234375 C 1.21875 -5.234375 1.289062 -5.203125 1.34375 -5.140625 C 1.40625 -5.085938 1.4375 -5.015625 1.4375 -4.921875 L 1.4375 -4.359375 C 1.625 -4.660156 1.890625 -4.90625 2.234375 -5.09375 C 2.578125 -5.289062 2.929688 -5.390625 3.296875 -5.390625 Z M 3.296875 -5.390625 "/></g></g></g><g fill="#eba812" fill-opacity="1"><g transform="translate(272.703963, 284.178437)"><g><path d="M 0.515625 -0.828125 C 0.460938 -0.921875 0.4375 -1 0.4375 -1.0625 C 0.4375 -1.15625 0.476562 -1.222656 0.5625 -1.265625 C 0.601562 -1.304688 0.660156 -1.328125 0.734375 -1.328125 C 0.816406 -1.328125 0.890625 -1.296875 0.953125 -1.234375 C 1.359375 -0.691406 1.898438 -0.421875 2.578125 -0.421875 C 2.910156 -0.421875 3.195312 -0.5 3.4375 -0.65625 C 3.6875 -0.8125 3.8125 -1.035156 3.8125 -1.328125 C 3.8125 -1.617188 3.695312 -1.835938 3.46875 -1.984375 C 3.238281 -2.128906 2.921875 -2.25 2.515625 -2.34375 C 1.941406 -2.488281 1.492188 -2.675781 1.171875 -2.90625 C 0.847656 -3.144531 0.6875 -3.484375 0.6875 -3.921875 C 0.6875 -4.210938 0.765625 -4.46875 0.921875 -4.6875 C 1.085938 -4.90625 1.304688 -5.078125 1.578125 -5.203125 C 1.847656 -5.328125 2.15625 -5.390625 2.5 -5.390625 C 2.789062 -5.390625 3.085938 -5.332031 3.390625 -5.21875 C 3.691406 -5.101562 3.945312 -4.925781 4.15625 -4.6875 C 4.21875 -4.632812 4.25 -4.5625 4.25 -4.46875 C 4.25 -4.394531 4.210938 -4.328125 4.140625 -4.265625 C 4.097656 -4.222656 4.035156 -4.203125 3.953125 -4.203125 C 3.890625 -4.203125 3.832031 -4.226562 3.78125 -4.28125 C 3.613281 -4.46875 3.414062 -4.609375 3.1875 -4.703125 C 2.957031 -4.796875 2.710938 -4.84375 2.453125 -4.84375 C 2.128906 -4.84375 1.851562 -4.765625 1.625 -4.609375 C 1.394531 -4.460938 1.28125 -4.238281 1.28125 -3.9375 C 1.289062 -3.664062 1.414062 -3.457031 1.65625 -3.3125 C 1.894531 -3.164062 2.242188 -3.035156 2.703125 -2.921875 C 3.054688 -2.828125 3.347656 -2.722656 3.578125 -2.609375 C 3.816406 -2.503906 4.007812 -2.351562 4.15625 -2.15625 C 4.3125 -1.957031 4.390625 -1.691406 4.390625 -1.359375 C 4.390625 -0.910156 4.207031 -0.550781 3.84375 -0.28125 C 3.488281 -0.0195312 3.046875 0.109375 2.515625 0.109375 C 1.679688 0.109375 1.015625 -0.203125 0.515625 -0.828125 Z M 0.515625 -0.828125 "/></g></g></g><g fill="#eba812" fill-opacity="1"><g transform="translate(284.255239, 284.178437)"><g><path d="M 5.265625 -2.9375 C 5.265625 -2.851562 5.234375 -2.78125 5.171875 -2.71875 C 5.109375 -2.664062 5.035156 -2.640625 4.953125 -2.640625 L 1.0625 -2.640625 C 1.0625 -2.222656 1.144531 -1.851562 1.3125 -1.53125 C 1.476562 -1.207031 1.71875 -0.945312 2.03125 -0.75 C 2.34375 -0.5625 2.710938 -0.46875 3.140625 -0.46875 C 3.472656 -0.46875 3.769531 -0.535156 4.03125 -0.671875 C 4.289062 -0.816406 4.5 -0.992188 4.65625 -1.203125 C 4.738281 -1.265625 4.8125 -1.296875 4.875 -1.296875 C 4.945312 -1.296875 5.007812 -1.269531 5.0625 -1.21875 C 5.113281 -1.164062 5.140625 -1.101562 5.140625 -1.03125 C 5.140625 -0.957031 5.109375 -0.882812 5.046875 -0.8125 C 4.828125 -0.539062 4.550781 -0.316406 4.21875 -0.140625 C 3.882812 0.0234375 3.53125 0.109375 3.15625 0.109375 C 2.625 0.109375 2.15625 -0.00390625 1.75 -0.234375 C 1.34375 -0.460938 1.023438 -0.78125 0.796875 -1.1875 C 0.578125 -1.601562 0.46875 -2.078125 0.46875 -2.609375 C 0.46875 -3.171875 0.578125 -3.660156 0.796875 -4.078125 C 1.023438 -4.503906 1.320312 -4.828125 1.6875 -5.046875 C 2.0625 -5.273438 2.457031 -5.390625 2.875 -5.390625 C 3.289062 -5.390625 3.675781 -5.289062 4.03125 -5.09375 C 4.394531 -4.90625 4.691406 -4.625 4.921875 -4.25 C 5.148438 -3.882812 5.265625 -3.445312 5.265625 -2.9375 Z M 2.875 -4.796875 C 2.476562 -4.796875 2.109375 -4.65625 1.765625 -4.375 C 1.429688 -4.101562 1.210938 -3.710938 1.109375 -3.203125 L 4.625 -3.203125 L 4.625 -3.28125 C 4.59375 -3.59375 4.488281 -3.863281 4.3125 -4.09375 C 4.144531 -4.320312 3.929688 -4.492188 3.671875 -4.609375 C 3.421875 -4.734375 3.15625 -4.796875 2.875 -4.796875 Z M 2.875 -4.796875 "/></g></g></g><g fill="#eba812" fill-opacity="1"><g transform="translate(296.70268, 284.178437)"><g><path d="M 0.890625 0 C 0.773438 0 0.6875 -0.0351562 0.625 -0.109375 C 0.5625 -0.179688 0.53125 -0.28125 0.53125 -0.40625 L 0.53125 -0.625 C 0.53125 -0.738281 0.5625 -0.832031 0.625 -0.90625 C 0.6875 -0.976562 0.773438 -1.015625 0.890625 -1.015625 L 0.96875 -1.015625 C 1.082031 -1.015625 1.171875 -0.976562 1.234375 -0.90625 C 1.296875 -0.832031 1.328125 -0.738281 1.328125 -0.625 L 1.328125 -0.40625 C 1.328125 -0.28125 1.296875 -0.179688 1.234375 -0.109375 C 1.171875 -0.0351562 1.082031 0 0.96875 0 Z M 0.890625 0 "/></g></g></g></svg>