<svg width="1440" height="636" viewBox="0 0 1440 636" fill="none" xmlns="http://www.w3.org/2000/svg">
<path d="M-9.22121 -3.46409C-7.46608 -7.78942 -5.98776 -11.3283 -4.85361 -14H1480V500.929C1478.4 501.306 1476.57 501.739 1474.49 502.225C1465.87 504.243 1453.16 507.169 1436.87 510.794C1404.28 518.043 1357.34 528.084 1299.97 539.243C1185.22 561.564 1028.82 588.339 862.17 606.185C695.454 624.037 518.818 632.914 363.47 619.578C207.686 606.205 75.2543 570.632 -4.87473 501.258C-45.5767 466.019 -66.3541 416.615 -74.2103 361.226C-82.0759 305.77 -76.8676 245.019 -66.2066 188.315C-55.5597 131.686 -39.5694 79.5799 -26.2164 41.5907C-19.5451 22.6111 -13.545 7.19149 -9.22121 -3.46409Z" fill="#2E0249" stroke="#DB29C4" stroke-width="20"/>
</svg>
