<svg xmlns="http://www.w3.org/2000/svg" xmlns:xlink="http://www.w3.org/1999/xlink" width="500" zoomAndPan="magnify" viewBox="0 0 375 374.999991" height="500" preserveAspectRatio="xMidYMid meet" version="1.0"><defs><g/></defs><g fill="#ffd449" fill-opacity="1"><g transform="translate(37.488053, 353.603824)"><g><path d="M 302.359375 -263.3125 C 302.359375 -250.9375 299.5 -239.75 293.78125 -229.75 C 288.070312 -219.75 279.660156 -211.890625 268.546875 -206.171875 C 260.609375 -210.617188 252.113281 -214.109375 243.0625 -216.640625 C 234.019531 -219.179688 224.738281 -220.769531 215.21875 -221.40625 C 213.3125 -221.40625 212.117188 -220.53125 211.640625 -218.78125 C 211.171875 -217.039062 211.890625 -215.851562 213.796875 -215.21875 C 235.066406 -210.457031 252.445312 -201.882812 265.9375 -189.5 C 279.425781 -177.125 289.023438 -162.84375 294.734375 -146.65625 C 300.453125 -130.46875 302.4375 -113.800781 300.6875 -96.65625 C 298.945312 -79.519531 293.234375 -63.648438 283.546875 -49.046875 C 273.867188 -34.441406 260.300781 -22.613281 242.84375 -13.5625 C 225.382812 -4.519531 204.113281 0 179.03125 0 L 74.75 0 C 61.101562 0 48.566406 -3.96875 37.140625 -11.90625 C 25.710938 -19.84375 16.503906 -29.679688 9.515625 -41.421875 C 2.535156 -53.171875 -0.953125 -64.597656 -0.953125 -75.703125 C -0.953125 -88.722656 1.425781 -100.070312 6.1875 -109.75 C 10.945312 -119.4375 18.566406 -128.085938 29.046875 -135.703125 C 38.253906 -129.671875 48.726562 -125.066406 60.46875 -121.890625 C 72.21875 -118.722656 83.644531 -117.140625 94.75 -117.140625 C 96.65625 -117.140625 97.765625 -118.007812 98.078125 -119.75 C 98.398438 -121.5 97.609375 -122.691406 95.703125 -123.328125 C 89.035156 -123.960938 82.367188 -125.390625 75.703125 -127.609375 C 69.035156 -129.828125 62.53125 -132.523438 56.1875 -135.703125 C 40.632812 -143.953125 28.253906 -154.582031 19.046875 -167.59375 C 9.835938 -180.613281 3.882812 -194.742188 1.1875 -209.984375 C -1.507812 -225.222656 -1.035156 -240.378906 2.609375 -255.453125 C 6.265625 -270.535156 13.09375 -284.265625 23.09375 -296.640625 C 33.09375 -309.023438 46.34375 -319.023438 62.84375 -326.640625 C 79.351562 -334.265625 99.035156 -338.078125 121.890625 -338.078125 L 225.21875 -338.078125 C 239.507812 -338.078125 252.445312 -334.742188 264.03125 -328.078125 C 275.613281 -321.410156 284.894531 -312.441406 291.875 -301.171875 C 298.863281 -289.898438 302.359375 -277.28125 302.359375 -263.3125 Z M 302.359375 -263.3125 "/></g></g></g></svg>