<svg xmlns="http://www.w3.org/2000/svg" xmlns:xlink="http://www.w3.org/1999/xlink" width="500" zoomAndPan="magnify" viewBox="0 0 375 374.999991" height="500" preserveAspectRatio="xMidYMid meet" version="1.0"><defs><g/></defs><g fill="#eba812" fill-opacity="1"><g transform="translate(40.57575, 341.630501)"><g><path d="M 280.5625 -244.328125 C 280.5625 -232.835938 277.910156 -222.453125 272.609375 -213.171875 C 267.304688 -203.898438 259.5 -196.613281 249.1875 -191.3125 C 241.820312 -195.4375 233.941406 -198.675781 225.546875 -201.03125 C 217.160156 -203.382812 208.546875 -204.859375 199.703125 -205.453125 C 197.941406 -205.453125 196.835938 -204.640625 196.390625 -203.015625 C 195.953125 -201.398438 196.613281 -200.296875 198.375 -199.703125 C 218.113281 -195.285156 234.238281 -187.332031 246.75 -175.84375 C 259.269531 -164.351562 268.179688 -151.097656 273.484375 -136.078125 C 278.785156 -121.054688 280.625 -105.59375 279 -89.6875 C 277.382812 -73.78125 272.085938 -59.050781 263.109375 -45.5 C 254.128906 -31.957031 241.535156 -20.988281 225.328125 -12.59375 C 209.128906 -4.195312 189.394531 0 166.125 0 L 69.359375 0 C 56.703125 0 45.070312 -3.679688 34.46875 -11.046875 C 23.863281 -18.410156 15.316406 -27.539062 8.828125 -38.4375 C 2.347656 -49.332031 -0.890625 -59.9375 -0.890625 -70.25 C -0.890625 -82.320312 1.316406 -92.847656 5.734375 -101.828125 C 10.160156 -110.816406 17.234375 -118.847656 26.953125 -125.921875 C 35.492188 -120.328125 45.210938 -116.054688 56.109375 -113.109375 C 67.003906 -110.160156 77.609375 -108.6875 87.921875 -108.6875 C 89.691406 -108.6875 90.722656 -109.492188 91.015625 -111.109375 C 91.304688 -112.734375 90.570312 -113.84375 88.8125 -114.4375 C 82.625 -115.019531 76.4375 -116.34375 70.25 -118.40625 C 64.0625 -120.46875 58.023438 -122.972656 52.140625 -125.921875 C 37.703125 -133.578125 26.210938 -143.441406 17.671875 -155.515625 C 9.128906 -167.597656 3.601562 -180.707031 1.09375 -194.84375 C -1.40625 -208.976562 -0.960938 -223.039062 2.421875 -237.03125 C 5.816406 -251.03125 12.148438 -263.769531 21.421875 -275.25 C 30.703125 -286.738281 43 -296.019531 58.3125 -303.09375 C 73.632812 -310.164062 91.898438 -313.703125 113.109375 -313.703125 L 208.984375 -313.703125 C 222.234375 -313.703125 234.234375 -310.609375 244.984375 -304.421875 C 255.742188 -298.234375 264.363281 -289.910156 270.84375 -279.453125 C 277.320312 -268.992188 280.5625 -257.285156 280.5625 -244.328125 Z M 280.5625 -244.328125 "/></g></g></g></svg>