<svg xmlns="http://www.w3.org/2000/svg" xmlns:xlink="http://www.w3.org/1999/xlink" width="500" zoomAndPan="magnify" viewBox="0 0 375 374.999991" height="500" preserveAspectRatio="xMidYMid meet" version="1.0"><defs><g/></defs><g fill="#ffd449" fill-opacity="1"><g transform="translate(121.601869, 237.897677)"><g><path d="M 125.84375 -109.59375 C 125.84375 -104.4375 124.648438 -99.773438 122.265625 -95.609375 C 119.890625 -91.453125 116.390625 -88.1875 111.765625 -85.8125 C 108.460938 -87.65625 104.925781 -89.101562 101.15625 -90.15625 C 97.394531 -91.21875 93.535156 -91.882812 89.578125 -92.15625 C 88.785156 -92.15625 88.289062 -91.789062 88.09375 -91.0625 C 87.894531 -90.332031 88.191406 -89.835938 88.984375 -89.578125 C 97.828125 -87.585938 105.054688 -84.015625 110.671875 -78.859375 C 116.285156 -73.710938 120.28125 -67.769531 122.65625 -61.03125 C 125.039062 -54.300781 125.867188 -47.367188 125.140625 -40.234375 C 124.421875 -33.097656 122.046875 -26.488281 118.015625 -20.40625 C 113.984375 -14.332031 108.332031 -9.410156 101.0625 -5.640625 C 93.800781 -1.878906 84.953125 0 74.515625 0 L 31.109375 0 C 25.429688 0 20.210938 -1.648438 15.453125 -4.953125 C 10.703125 -8.253906 6.875 -12.347656 3.96875 -17.234375 C 1.0625 -22.128906 -0.390625 -26.890625 -0.390625 -31.515625 C -0.390625 -36.929688 0.597656 -41.648438 2.578125 -45.671875 C 4.554688 -49.703125 7.726562 -53.304688 12.09375 -56.484375 C 15.914062 -53.972656 20.269531 -52.054688 25.15625 -50.734375 C 30.050781 -49.410156 34.8125 -48.75 39.4375 -48.75 C 40.226562 -48.75 40.6875 -49.113281 40.8125 -49.84375 C 40.945312 -50.570312 40.617188 -51.066406 39.828125 -51.328125 C 37.054688 -51.585938 34.28125 -52.179688 31.5 -53.109375 C 28.726562 -54.035156 26.023438 -55.160156 23.390625 -56.484375 C 16.910156 -59.910156 11.753906 -64.332031 7.921875 -69.75 C 4.097656 -75.164062 1.625 -81.046875 0.5 -87.390625 C -0.625 -93.734375 -0.425781 -100.039062 1.09375 -106.3125 C 2.613281 -112.59375 5.453125 -118.304688 9.609375 -123.453125 C 13.773438 -128.609375 19.289062 -132.769531 26.15625 -135.9375 C 33.03125 -139.113281 41.222656 -140.703125 50.734375 -140.703125 L 93.734375 -140.703125 C 99.679688 -140.703125 105.066406 -139.3125 109.890625 -136.53125 C 114.710938 -133.757812 118.578125 -130.03125 121.484375 -125.34375 C 124.390625 -120.65625 125.84375 -115.40625 125.84375 -109.59375 Z M 125.84375 -109.59375 "/></g></g></g><g fill="#ffd449" fill-opacity="1"><g transform="translate(131.803543, 296.455651)"><g><path d="M 14.078125 0.484375 C 11.597656 0.523438 9.441406 0.140625 7.609375 -0.671875 C 5.773438 -1.492188 4.023438 -2.726562 2.359375 -4.375 C 2.191406 -4.5 2.050781 -4.660156 1.9375 -4.859375 C 1.820312 -5.054688 1.765625 -5.285156 1.765625 -5.546875 C 1.765625 -5.941406 1.921875 -6.300781 2.234375 -6.625 C 2.546875 -6.945312 2.894531 -7.109375 3.28125 -7.109375 C 3.675781 -7.109375 4.039062 -6.945312 4.375 -6.625 C 5.644531 -5.25 7.085938 -4.203125 8.703125 -3.484375 C 10.328125 -2.765625 12.070312 -2.40625 13.9375 -2.40625 C 15.507812 -2.40625 16.90625 -2.648438 18.125 -3.140625 C 19.351562 -3.628906 20.328125 -4.332031 21.046875 -5.25 C 21.773438 -6.164062 22.140625 -7.226562 22.140625 -8.4375 C 22.140625 -9.945312 21.726562 -11.164062 20.90625 -12.09375 C 20.09375 -13.03125 19.015625 -13.800781 17.671875 -14.40625 C 16.328125 -15.007812 14.835938 -15.554688 13.203125 -16.046875 C 11.859375 -16.441406 10.582031 -16.890625 9.375 -17.390625 C 8.164062 -17.898438 7.085938 -18.523438 6.140625 -19.265625 C 5.191406 -20.003906 4.453125 -20.910156 3.921875 -21.984375 C 3.398438 -23.066406 3.140625 -24.375 3.140625 -25.90625 C 3.140625 -27.644531 3.597656 -29.179688 4.515625 -30.515625 C 5.429688 -31.859375 6.726562 -32.914062 8.40625 -33.6875 C 10.09375 -34.457031 12.050781 -34.84375 14.28125 -34.84375 C 16.207031 -34.84375 18.0625 -34.515625 19.84375 -33.859375 C 21.632812 -33.203125 23.050781 -32.238281 24.09375 -30.96875 C 24.582031 -30.445312 24.828125 -29.972656 24.828125 -29.546875 C 24.828125 -29.210938 24.664062 -28.882812 24.34375 -28.5625 C 24.019531 -28.238281 23.660156 -28.078125 23.265625 -28.078125 C 22.929688 -28.078125 22.648438 -28.191406 22.421875 -28.421875 C 21.867188 -29.109375 21.164062 -29.71875 20.3125 -30.25 C 19.46875 -30.789062 18.53125 -31.207031 17.5 -31.5 C 16.46875 -31.800781 15.394531 -31.953125 14.28125 -31.953125 C 12.738281 -31.953125 11.351562 -31.710938 10.125 -31.234375 C 8.90625 -30.765625 7.941406 -30.085938 7.234375 -29.203125 C 6.535156 -28.316406 6.1875 -27.253906 6.1875 -26.015625 C 6.1875 -24.640625 6.578125 -23.507812 7.359375 -22.625 C 8.148438 -21.738281 9.179688 -21.007812 10.453125 -20.4375 C 11.734375 -19.863281 13.09375 -19.332031 14.53125 -18.84375 C 15.9375 -18.445312 17.285156 -17.992188 18.578125 -17.484375 C 19.867188 -16.984375 21.015625 -16.359375 22.015625 -15.609375 C 23.015625 -14.859375 23.796875 -13.910156 24.359375 -12.765625 C 24.929688 -11.617188 25.21875 -10.175781 25.21875 -8.4375 C 25.21875 -6.769531 24.742188 -5.265625 23.796875 -3.921875 C 22.847656 -2.578125 21.546875 -1.515625 19.890625 -0.734375 C 18.242188 0.046875 16.304688 0.453125 14.078125 0.484375 Z M 14.078125 0.484375 "/></g></g></g><g fill="#ffd449" fill-opacity="1"><g transform="translate(159.830354, 296.455651)"><g><path d="M 15.3125 -25.28125 C 17.375 -25.28125 19.039062 -24.835938 20.3125 -23.953125 C 21.59375 -23.066406 22.535156 -21.867188 23.140625 -20.359375 C 23.742188 -18.859375 24.046875 -17.191406 24.046875 -15.359375 L 24.046875 -1.46875 C 24.046875 -1.082031 23.898438 -0.738281 23.609375 -0.4375 C 23.316406 -0.144531 22.972656 0 22.578125 0 C 22.117188 0 21.757812 -0.144531 21.5 -0.4375 C 21.238281 -0.738281 21.109375 -1.082031 21.109375 -1.46875 L 21.109375 -15.359375 C 21.109375 -16.703125 20.898438 -17.910156 20.484375 -18.984375 C 20.078125 -20.066406 19.414062 -20.925781 18.5 -21.5625 C 17.582031 -22.207031 16.359375 -22.53125 14.828125 -22.53125 C 13.453125 -22.53125 12.148438 -22.207031 10.921875 -21.5625 C 9.691406 -20.925781 8.703125 -20.066406 7.953125 -18.984375 C 7.203125 -17.910156 6.828125 -16.703125 6.828125 -15.359375 L 6.828125 -1.46875 C 6.828125 -1.082031 6.675781 -0.738281 6.375 -0.4375 C 6.082031 -0.144531 5.738281 0 5.34375 0 C 4.882812 0 4.523438 -0.144531 4.265625 -0.4375 C 4.003906 -0.738281 3.875 -1.082031 3.875 -1.46875 L 3.875 -34.84375 C 3.875 -35.238281 4.015625 -35.582031 4.296875 -35.875 C 4.578125 -36.164062 4.925781 -36.3125 5.34375 -36.3125 C 5.769531 -36.3125 6.125 -36.164062 6.40625 -35.875 C 6.6875 -35.582031 6.828125 -35.238281 6.828125 -34.84375 L 6.828125 -18.9375 L 5.6875 -17.21875 C 5.757812 -18.238281 6.082031 -19.226562 6.65625 -20.1875 C 7.226562 -21.15625 7.96875 -22.023438 8.875 -22.796875 C 9.789062 -23.566406 10.804688 -24.171875 11.921875 -24.609375 C 13.035156 -25.054688 14.164062 -25.28125 15.3125 -25.28125 Z M 15.3125 -25.28125 "/></g></g></g><g fill="#ffd449" fill-opacity="1"><g transform="translate(188.15166, 296.455651)"><g><path d="M 6.71875 -1.46875 C 6.71875 -1.082031 6.570312 -0.738281 6.28125 -0.4375 C 5.988281 -0.144531 5.644531 0 5.25 0 C 4.820312 0 4.46875 -0.144531 4.1875 -0.4375 C 3.914062 -0.738281 3.78125 -1.082031 3.78125 -1.46875 L 3.78125 -24.046875 C 3.78125 -24.441406 3.914062 -24.785156 4.1875 -25.078125 C 4.46875 -25.367188 4.820312 -25.515625 5.25 -25.515625 C 5.675781 -25.515625 6.023438 -25.367188 6.296875 -25.078125 C 6.578125 -24.785156 6.71875 -24.441406 6.71875 -24.046875 Z M 5.25 -28.8125 C 4.5625 -28.8125 4.046875 -28.96875 3.703125 -29.28125 C 3.359375 -29.59375 3.1875 -30.039062 3.1875 -30.625 L 3.1875 -31.125 C 3.1875 -31.707031 3.375 -32.15625 3.75 -32.46875 C 4.125 -32.78125 4.640625 -32.9375 5.296875 -32.9375 C 5.921875 -32.9375 6.40625 -32.78125 6.75 -32.46875 C 7.09375 -32.15625 7.265625 -31.707031 7.265625 -31.125 L 7.265625 -30.625 C 7.265625 -30.039062 7.09375 -29.59375 6.75 -29.28125 C 6.40625 -28.96875 5.90625 -28.8125 5.25 -28.8125 Z M 5.25 -28.8125 "/></g></g></g><g fill="#ffd449" fill-opacity="1"><g transform="translate(199.097345, 296.455651)"><g><path d="M 12.953125 -36.125 C 13.441406 -36.125 13.972656 -36.070312 14.546875 -35.96875 C 15.117188 -35.875 15.617188 -35.703125 16.046875 -35.453125 C 16.472656 -35.210938 16.6875 -34.847656 16.6875 -34.359375 C 16.6875 -33.992188 16.554688 -33.671875 16.296875 -33.390625 C 16.035156 -33.117188 15.738281 -32.984375 15.40625 -32.984375 C 15.082031 -32.984375 14.675781 -33.070312 14.1875 -33.25 C 13.695312 -33.425781 13.171875 -33.515625 12.609375 -33.515625 C 11.921875 -33.515625 11.332031 -33.359375 10.84375 -33.046875 C 10.351562 -32.742188 9.976562 -32.304688 9.71875 -31.734375 C 9.457031 -31.160156 9.328125 -30.460938 9.328125 -29.640625 L 9.328125 -1.46875 C 9.328125 -1.082031 9.1875 -0.738281 8.90625 -0.4375 C 8.625 -0.144531 8.273438 0 7.859375 0 C 7.429688 0 7.078125 -0.144531 6.796875 -0.4375 C 6.515625 -0.738281 6.375 -1.082031 6.375 -1.46875 L 6.375 -29.640625 C 6.375 -31.734375 6.988281 -33.335938 8.21875 -34.453125 C 9.445312 -35.566406 11.023438 -36.125 12.953125 -36.125 Z M 14.828125 -24.59375 C 15.210938 -24.59375 15.535156 -24.457031 15.796875 -24.1875 C 16.066406 -23.925781 16.203125 -23.601562 16.203125 -23.21875 C 16.203125 -22.820312 16.066406 -22.492188 15.796875 -22.234375 C 15.535156 -21.972656 15.210938 -21.84375 14.828125 -21.84375 L 2.796875 -21.84375 C 2.429688 -21.84375 2.109375 -21.976562 1.828125 -22.25 C 1.554688 -22.53125 1.421875 -22.851562 1.421875 -23.21875 C 1.421875 -23.644531 1.554688 -23.976562 1.828125 -24.21875 C 2.109375 -24.46875 2.429688 -24.59375 2.796875 -24.59375 Z M 14.828125 -24.59375 "/></g></g></g><g fill="#ffd449" fill-opacity="1"><g transform="translate(217.209245, 296.455651)"><g><path d="M 2.25 -24.984375 L 13.6875 -24.984375 C 14.082031 -24.984375 14.410156 -24.84375 14.671875 -24.5625 C 14.929688 -24.28125 15.0625 -23.945312 15.0625 -23.5625 C 15.0625 -23.195312 14.929688 -22.882812 14.671875 -22.625 C 14.410156 -22.363281 14.082031 -22.234375 13.6875 -22.234375 L 2.25 -22.234375 C 1.863281 -22.234375 1.53125 -22.367188 1.25 -22.640625 C 0.96875 -22.921875 0.828125 -23.242188 0.828125 -23.609375 C 0.828125 -24.003906 0.96875 -24.332031 1.25 -24.59375 C 1.53125 -24.851562 1.863281 -24.984375 2.25 -24.984375 Z M 7.3125 -31.90625 C 7.738281 -31.90625 8.085938 -31.753906 8.359375 -31.453125 C 8.640625 -31.160156 8.78125 -30.816406 8.78125 -30.421875 L 8.78125 -5.796875 C 8.78125 -4.878906 8.898438 -4.191406 9.140625 -3.734375 C 9.390625 -3.273438 9.710938 -2.96875 10.109375 -2.8125 C 10.503906 -2.664062 10.894531 -2.59375 11.28125 -2.59375 C 11.550781 -2.59375 11.789062 -2.632812 12 -2.71875 C 12.207031 -2.800781 12.445312 -2.84375 12.71875 -2.84375 C 13.007812 -2.84375 13.257812 -2.726562 13.46875 -2.5 C 13.6875 -2.269531 13.796875 -1.976562 13.796875 -1.625 C 13.796875 -1.164062 13.53125 -0.78125 13 -0.46875 C 12.476562 -0.15625 11.859375 0 11.140625 0 C 10.847656 0 10.40625 -0.0195312 9.8125 -0.0625 C 9.226562 -0.113281 8.625 -0.296875 8 -0.609375 C 7.375 -0.921875 6.859375 -1.46875 6.453125 -2.25 C 6.046875 -3.039062 5.84375 -4.171875 5.84375 -5.640625 L 5.84375 -30.421875 C 5.84375 -30.816406 5.976562 -31.160156 6.25 -31.453125 C 6.53125 -31.753906 6.882812 -31.90625 7.3125 -31.90625 Z M 7.3125 -31.90625 "/></g></g></g><g fill="#ffd449" fill-opacity="1"><g transform="translate(234.290384, 296.455651)"><g><path d="M 4.265625 0 C 3.710938 0 3.285156 -0.175781 2.984375 -0.53125 C 2.691406 -0.894531 2.546875 -1.351562 2.546875 -1.90625 L 2.546875 -2.9375 C 2.546875 -3.53125 2.691406 -3.988281 2.984375 -4.3125 C 3.285156 -4.644531 3.710938 -4.8125 4.265625 -4.8125 L 4.609375 -4.8125 C 5.171875 -4.8125 5.597656 -4.644531 5.890625 -4.3125 C 6.179688 -3.988281 6.328125 -3.53125 6.328125 -2.9375 L 6.328125 -1.90625 C 6.328125 -1.351562 6.179688 -0.894531 5.890625 -0.53125 C 5.597656 -0.175781 5.171875 0 4.609375 0 Z M 4.265625 0 "/></g></g></g><g fill="#ffd449" fill-opacity="1"><g transform="translate(64.745267, 321.792636)"><g><path d="M 3.59375 0.125 C 2.976562 0.125 2.4375 0.0234375 1.96875 -0.171875 C 1.5 -0.378906 1.046875 -0.695312 0.609375 -1.125 C 0.503906 -1.207031 0.453125 -1.3125 0.453125 -1.4375 C 0.453125 -1.53125 0.492188 -1.617188 0.578125 -1.703125 C 0.660156 -1.796875 0.75 -1.84375 0.84375 -1.84375 C 0.945312 -1.84375 1.039062 -1.796875 1.125 -1.703125 C 1.78125 -0.984375 2.601562 -0.625 3.59375 -0.625 C 4.207031 -0.625 4.710938 -0.765625 5.109375 -1.046875 C 5.515625 -1.335938 5.71875 -1.710938 5.71875 -2.171875 C 5.71875 -2.535156 5.617188 -2.835938 5.421875 -3.078125 C 5.222656 -3.328125 4.960938 -3.523438 4.640625 -3.671875 C 4.316406 -3.828125 3.90625 -3.984375 3.40625 -4.140625 C 2.863281 -4.304688 2.410156 -4.484375 2.046875 -4.671875 C 1.679688 -4.867188 1.382812 -5.128906 1.15625 -5.453125 C 0.925781 -5.773438 0.8125 -6.1875 0.8125 -6.6875 C 0.8125 -7.132812 0.929688 -7.53125 1.171875 -7.875 C 1.410156 -8.226562 1.75 -8.503906 2.1875 -8.703125 C 2.625 -8.898438 3.125 -9 3.6875 -9 C 4.195312 -9 4.675781 -8.910156 5.125 -8.734375 C 5.582031 -8.566406 5.945312 -8.320312 6.21875 -8 C 6.34375 -7.851562 6.40625 -7.726562 6.40625 -7.625 C 6.40625 -7.53125 6.363281 -7.441406 6.28125 -7.359375 C 6.195312 -7.285156 6.101562 -7.25 6 -7.25 C 5.914062 -7.25 5.847656 -7.28125 5.796875 -7.34375 C 5.566406 -7.613281 5.257812 -7.832031 4.875 -8 C 4.5 -8.164062 4.101562 -8.25 3.6875 -8.25 C 3.070312 -8.25 2.566406 -8.109375 2.171875 -7.828125 C 1.785156 -7.554688 1.59375 -7.1875 1.59375 -6.71875 C 1.59375 -6.226562 1.78125 -5.851562 2.15625 -5.59375 C 2.53125 -5.332031 3.0625 -5.085938 3.75 -4.859375 C 4.351562 -4.679688 4.84375 -4.5 5.21875 -4.3125 C 5.601562 -4.132812 5.914062 -3.875 6.15625 -3.53125 C 6.394531 -3.1875 6.515625 -2.734375 6.515625 -2.171875 C 6.515625 -1.742188 6.390625 -1.351562 6.140625 -1 C 5.890625 -0.65625 5.539062 -0.378906 5.09375 -0.171875 C 4.65625 0.0234375 4.15625 0.125 3.59375 0.125 Z M 3.59375 0.125 "/></g></g></g><g fill="#ffd449" fill-opacity="1"><g transform="translate(80.128303, 321.792636)"><g><path d="M 3.953125 -6.53125 C 4.710938 -6.53125 5.273438 -6.289062 5.640625 -5.8125 C 6.015625 -5.332031 6.203125 -4.71875 6.203125 -3.96875 L 6.203125 -0.375 C 6.203125 -0.269531 6.164062 -0.179688 6.09375 -0.109375 C 6.03125 -0.0351562 5.941406 0 5.828125 0 C 5.722656 0 5.632812 -0.0351562 5.5625 -0.109375 C 5.488281 -0.179688 5.453125 -0.269531 5.453125 -0.375 L 5.453125 -3.96875 C 5.453125 -4.519531 5.316406 -4.960938 5.046875 -5.296875 C 4.785156 -5.640625 4.378906 -5.8125 3.828125 -5.8125 C 3.472656 -5.8125 3.132812 -5.726562 2.8125 -5.5625 C 2.5 -5.394531 2.242188 -5.164062 2.046875 -4.875 C 1.859375 -4.59375 1.765625 -4.289062 1.765625 -3.96875 L 1.765625 -0.375 C 1.765625 -0.269531 1.726562 -0.179688 1.65625 -0.109375 C 1.582031 -0.0351562 1.488281 0 1.375 0 C 1.269531 0 1.179688 -0.0351562 1.109375 -0.109375 C 1.035156 -0.179688 1 -0.269531 1 -0.375 L 1 -9 C 1 -9.101562 1.035156 -9.191406 1.109375 -9.265625 C 1.179688 -9.335938 1.269531 -9.375 1.375 -9.375 C 1.488281 -9.375 1.582031 -9.335938 1.65625 -9.265625 C 1.726562 -9.191406 1.765625 -9.101562 1.765625 -9 L 1.765625 -5.28125 C 1.992188 -5.644531 2.304688 -5.941406 2.703125 -6.171875 C 3.109375 -6.410156 3.523438 -6.53125 3.953125 -6.53125 Z M 3.953125 -6.53125 "/></g></g></g><g fill="#ffd449" fill-opacity="1"><g transform="translate(95.587333, 321.792636)"><g><path d="M 1.734375 -0.375 C 1.734375 -0.269531 1.695312 -0.179688 1.625 -0.109375 C 1.550781 -0.0351562 1.460938 0 1.359375 0 C 1.242188 0 1.148438 -0.0351562 1.078125 -0.109375 C 1.003906 -0.179688 0.96875 -0.269531 0.96875 -0.375 L 0.96875 -6.203125 C 0.96875 -6.316406 1.003906 -6.410156 1.078125 -6.484375 C 1.148438 -6.554688 1.242188 -6.59375 1.359375 -6.59375 C 1.460938 -6.59375 1.550781 -6.554688 1.625 -6.484375 C 1.695312 -6.410156 1.734375 -6.316406 1.734375 -6.203125 Z M 1.359375 -7.4375 C 1.191406 -7.4375 1.0625 -7.472656 0.96875 -7.546875 C 0.875 -7.628906 0.828125 -7.75 0.828125 -7.90625 L 0.828125 -8.03125 C 0.828125 -8.1875 0.875 -8.300781 0.96875 -8.375 C 1.070312 -8.457031 1.207031 -8.5 1.375 -8.5 C 1.707031 -8.5 1.875 -8.34375 1.875 -8.03125 L 1.875 -7.90625 C 1.875 -7.75 1.828125 -7.628906 1.734375 -7.546875 C 1.648438 -7.472656 1.523438 -7.4375 1.359375 -7.4375 Z M 1.359375 -7.4375 "/></g></g></g><g fill="#ffd449" fill-opacity="1"><g transform="translate(106.562188, 321.792636)"><g><path d="M 3.25 -8.65625 C 2.976562 -8.65625 2.769531 -8.566406 2.625 -8.390625 C 2.476562 -8.210938 2.40625 -7.96875 2.40625 -7.65625 L 2.40625 -6.34375 L 3.828125 -6.34375 C 3.921875 -6.34375 4.003906 -6.304688 4.078125 -6.234375 C 4.148438 -6.171875 4.1875 -6.09375 4.1875 -6 C 4.1875 -5.894531 4.148438 -5.804688 4.078125 -5.734375 C 4.003906 -5.671875 3.921875 -5.640625 3.828125 -5.640625 L 2.40625 -5.640625 L 2.40625 -0.375 C 2.40625 -0.269531 2.367188 -0.179688 2.296875 -0.109375 C 2.222656 -0.0351562 2.132812 0 2.03125 0 C 1.914062 0 1.820312 -0.0351562 1.75 -0.109375 C 1.675781 -0.179688 1.640625 -0.269531 1.640625 -0.375 L 1.640625 -5.640625 L 0.71875 -5.640625 C 0.613281 -5.640625 0.53125 -5.675781 0.46875 -5.75 C 0.40625 -5.820312 0.375 -5.90625 0.375 -6 C 0.375 -6.101562 0.40625 -6.1875 0.46875 -6.25 C 0.53125 -6.3125 0.613281 -6.34375 0.71875 -6.34375 L 1.640625 -6.34375 L 1.640625 -7.65625 C 1.640625 -8.1875 1.796875 -8.597656 2.109375 -8.890625 C 2.421875 -9.179688 2.832031 -9.328125 3.34375 -9.328125 C 3.582031 -9.328125 3.800781 -9.289062 4 -9.21875 C 4.207031 -9.144531 4.3125 -9.03125 4.3125 -8.875 C 4.3125 -8.769531 4.273438 -8.679688 4.203125 -8.609375 C 4.140625 -8.546875 4.066406 -8.515625 3.984375 -8.515625 C 3.898438 -8.515625 3.804688 -8.535156 3.703125 -8.578125 C 3.515625 -8.628906 3.363281 -8.65625 3.25 -8.65625 Z M 3.25 -8.65625 "/></g></g></g><g fill="#ffd449" fill-opacity="1"><g transform="translate(119.297779, 321.792636)"><g><path d="M 2.265625 -5.734375 L 2.265625 -1.5 C 2.265625 -1.175781 2.320312 -0.957031 2.4375 -0.84375 C 2.5625 -0.726562 2.722656 -0.671875 2.921875 -0.671875 C 2.960938 -0.671875 3.019531 -0.679688 3.09375 -0.703125 C 3.175781 -0.722656 3.238281 -0.734375 3.28125 -0.734375 C 3.351562 -0.734375 3.414062 -0.703125 3.46875 -0.640625 C 3.53125 -0.578125 3.5625 -0.503906 3.5625 -0.421875 C 3.5625 -0.296875 3.492188 -0.191406 3.359375 -0.109375 C 3.222656 -0.0351562 3.0625 0 2.875 0 C 2.644531 0 2.441406 -0.0195312 2.265625 -0.0625 C 2.085938 -0.101562 1.914062 -0.226562 1.75 -0.4375 C 1.59375 -0.65625 1.515625 -0.992188 1.515625 -1.453125 L 1.515625 -5.734375 L 0.578125 -5.734375 C 0.484375 -5.734375 0.398438 -5.765625 0.328125 -5.828125 C 0.253906 -5.898438 0.21875 -5.988281 0.21875 -6.09375 C 0.21875 -6.195312 0.253906 -6.28125 0.328125 -6.34375 C 0.398438 -6.414062 0.484375 -6.453125 0.578125 -6.453125 L 1.515625 -6.453125 L 1.515625 -7.859375 C 1.515625 -7.960938 1.546875 -8.050781 1.609375 -8.125 C 1.679688 -8.195312 1.773438 -8.234375 1.890625 -8.234375 C 1.992188 -8.234375 2.082031 -8.195312 2.15625 -8.125 C 2.226562 -8.050781 2.265625 -7.960938 2.265625 -7.859375 L 2.265625 -6.453125 L 3.53125 -6.453125 C 3.625 -6.453125 3.707031 -6.410156 3.78125 -6.328125 C 3.851562 -6.253906 3.890625 -6.171875 3.890625 -6.078125 C 3.890625 -5.984375 3.851562 -5.898438 3.78125 -5.828125 C 3.71875 -5.765625 3.632812 -5.734375 3.53125 -5.734375 Z M 2.265625 -5.734375 "/></g></g></g><g fill="#ffd449" fill-opacity="1"><g transform="translate(131.856034, 321.792636)"><g/></g></g><g fill="#ffd449" fill-opacity="1"><g transform="translate(143.578259, 321.792636)"><g><path d="M 5.828125 -6.59375 C 5.941406 -6.59375 6.03125 -6.554688 6.09375 -6.484375 C 6.164062 -6.410156 6.203125 -6.316406 6.203125 -6.203125 L 6.203125 -0.625 C 6.203125 0.0390625 6.070312 0.609375 5.8125 1.078125 C 5.550781 1.554688 5.1875 1.914062 4.71875 2.15625 C 4.257812 2.40625 3.738281 2.53125 3.15625 2.53125 C 2.800781 2.53125 2.46875 2.492188 2.15625 2.421875 C 1.851562 2.347656 1.597656 2.242188 1.390625 2.109375 C 1.210938 2.003906 1.125 1.882812 1.125 1.75 C 1.125 1.726562 1.132812 1.6875 1.15625 1.625 C 1.175781 1.539062 1.21875 1.476562 1.28125 1.4375 C 1.34375 1.394531 1.40625 1.375 1.46875 1.375 C 1.519531 1.375 1.570312 1.382812 1.625 1.40625 C 2.164062 1.695312 2.679688 1.84375 3.171875 1.84375 C 3.867188 1.84375 4.421875 1.625 4.828125 1.1875 C 5.242188 0.75 5.453125 0.148438 5.453125 -0.609375 L 5.453125 -1.046875 C 5.234375 -0.691406 4.925781 -0.40625 4.53125 -0.1875 C 4.132812 0.0195312 3.707031 0.125 3.25 0.125 C 2.507812 0.125 1.945312 -0.09375 1.5625 -0.53125 C 1.1875 -0.96875 1 -1.5625 1 -2.3125 L 1 -6.203125 C 1 -6.316406 1.035156 -6.410156 1.109375 -6.484375 C 1.179688 -6.554688 1.269531 -6.59375 1.375 -6.59375 C 1.488281 -6.59375 1.582031 -6.554688 1.65625 -6.484375 C 1.726562 -6.410156 1.765625 -6.316406 1.765625 -6.203125 L 1.765625 -2.4375 C 1.765625 -1.820312 1.894531 -1.359375 2.15625 -1.046875 C 2.425781 -0.734375 2.84375 -0.578125 3.40625 -0.578125 C 3.75 -0.578125 4.078125 -0.664062 4.390625 -0.84375 C 4.710938 -1.019531 4.96875 -1.25 5.15625 -1.53125 C 5.351562 -1.8125 5.453125 -2.113281 5.453125 -2.4375 L 5.453125 -6.203125 C 5.453125 -6.316406 5.488281 -6.410156 5.5625 -6.484375 C 5.632812 -6.554688 5.722656 -6.59375 5.828125 -6.59375 Z M 5.828125 -6.59375 "/></g></g></g><g fill="#ffd449" fill-opacity="1"><g transform="translate(159.037289, 321.792636)"><g><path d="M 6.984375 -3.25 C 6.984375 -2.613281 6.84375 -2.035156 6.5625 -1.515625 C 6.28125 -1.003906 5.894531 -0.601562 5.40625 -0.3125 C 4.914062 -0.0195312 4.375 0.125 3.78125 0.125 C 3.175781 0.125 2.628906 -0.0195312 2.140625 -0.3125 C 1.648438 -0.601562 1.265625 -1.003906 0.984375 -1.515625 C 0.703125 -2.035156 0.5625 -2.613281 0.5625 -3.25 C 0.5625 -3.875 0.703125 -4.441406 0.984375 -4.953125 C 1.265625 -5.472656 1.648438 -5.878906 2.140625 -6.171875 C 2.628906 -6.472656 3.175781 -6.625 3.78125 -6.625 C 4.375 -6.625 4.914062 -6.472656 5.40625 -6.171875 C 5.894531 -5.878906 6.28125 -5.472656 6.5625 -4.953125 C 6.84375 -4.441406 6.984375 -3.875 6.984375 -3.25 Z M 6.21875 -3.25 C 6.21875 -3.75 6.113281 -4.203125 5.90625 -4.609375 C 5.695312 -5.015625 5.398438 -5.332031 5.015625 -5.5625 C 4.640625 -5.800781 4.226562 -5.921875 3.78125 -5.921875 C 3.320312 -5.921875 2.90625 -5.800781 2.53125 -5.5625 C 2.164062 -5.332031 1.875 -5.015625 1.65625 -4.609375 C 1.4375 -4.203125 1.328125 -3.75 1.328125 -3.25 C 1.328125 -2.75 1.4375 -2.296875 1.65625 -1.890625 C 1.875 -1.484375 2.164062 -1.160156 2.53125 -0.921875 C 2.90625 -0.691406 3.320312 -0.578125 3.78125 -0.578125 C 4.226562 -0.578125 4.640625 -0.691406 5.015625 -0.921875 C 5.398438 -1.148438 5.695312 -1.46875 5.90625 -1.875 C 6.113281 -2.28125 6.21875 -2.738281 6.21875 -3.25 Z M 6.21875 -3.25 "/></g></g></g><g fill="#ffd449" fill-opacity="1"><g transform="translate(174.83834, 321.792636)"><g><path d="M 5.84375 -6.4375 C 5.945312 -6.4375 6.035156 -6.398438 6.109375 -6.328125 C 6.179688 -6.253906 6.21875 -6.164062 6.21875 -6.0625 L 6.21875 -2.484375 C 6.21875 -1.648438 5.984375 -1.007812 5.515625 -0.5625 C 5.054688 -0.125 4.414062 0.09375 3.59375 0.09375 C 2.78125 0.09375 2.144531 -0.125 1.6875 -0.5625 C 1.226562 -1.007812 1 -1.648438 1 -2.484375 L 1 -6.0625 C 1 -6.164062 1.035156 -6.253906 1.109375 -6.328125 C 1.179688 -6.398438 1.269531 -6.4375 1.375 -6.4375 C 1.488281 -6.4375 1.582031 -6.398438 1.65625 -6.328125 C 1.726562 -6.253906 1.765625 -6.164062 1.765625 -6.0625 L 1.765625 -2.484375 C 1.765625 -1.878906 1.921875 -1.414062 2.234375 -1.09375 C 2.554688 -0.78125 3.007812 -0.625 3.59375 -0.625 C 4.1875 -0.625 4.644531 -0.78125 4.96875 -1.09375 C 5.300781 -1.414062 5.46875 -1.878906 5.46875 -2.484375 L 5.46875 -6.0625 C 5.46875 -6.164062 5.5 -6.253906 5.5625 -6.328125 C 5.632812 -6.398438 5.726562 -6.4375 5.84375 -6.4375 Z M 5.84375 -6.4375 "/></g></g></g><g fill="#ffd449" fill-opacity="1"><g transform="translate(190.310043, 321.792636)"><g><path d="M 4.03125 -6.625 C 4.195312 -6.625 4.347656 -6.585938 4.484375 -6.515625 C 4.617188 -6.453125 4.6875 -6.351562 4.6875 -6.21875 C 4.6875 -6.101562 4.648438 -6.007812 4.578125 -5.9375 C 4.515625 -5.863281 4.4375 -5.828125 4.34375 -5.828125 C 4.300781 -5.828125 4.21875 -5.847656 4.09375 -5.890625 C 3.976562 -5.929688 3.863281 -5.953125 3.75 -5.953125 C 3.4375 -5.953125 3.125 -5.832031 2.8125 -5.59375 C 2.507812 -5.351562 2.257812 -5.039062 2.0625 -4.65625 C 1.863281 -4.28125 1.765625 -3.898438 1.765625 -3.515625 L 1.765625 -0.375 C 1.765625 -0.269531 1.726562 -0.179688 1.65625 -0.109375 C 1.582031 -0.0351562 1.488281 0 1.375 0 C 1.269531 0 1.179688 -0.0351562 1.109375 -0.109375 C 1.035156 -0.179688 1 -0.269531 1 -0.375 L 1 -6.0625 C 1 -6.164062 1.035156 -6.253906 1.109375 -6.328125 C 1.179688 -6.398438 1.269531 -6.4375 1.375 -6.4375 C 1.488281 -6.4375 1.582031 -6.398438 1.65625 -6.328125 C 1.726562 -6.253906 1.765625 -6.164062 1.765625 -6.0625 L 1.765625 -4.9375 C 1.953125 -5.425781 2.242188 -5.828125 2.640625 -6.140625 C 3.035156 -6.453125 3.5 -6.613281 4.03125 -6.625 Z M 4.03125 -6.625 "/></g></g></g><g fill="#ffd449" fill-opacity="1"><g transform="translate(203.450991, 321.792636)"><g/></g></g><g fill="#ffd449" fill-opacity="1"><g transform="translate(215.173222, 321.792636)"><g><path d="M 4.078125 -6.53125 C 4.640625 -6.53125 5.144531 -6.382812 5.59375 -6.09375 C 6.050781 -5.8125 6.410156 -5.421875 6.671875 -4.921875 C 6.929688 -4.421875 7.0625 -3.859375 7.0625 -3.234375 C 7.0625 -2.597656 6.929688 -2.023438 6.671875 -1.515625 C 6.410156 -1.015625 6.050781 -0.617188 5.59375 -0.328125 C 5.144531 -0.046875 4.644531 0.09375 4.09375 0.09375 C 3.601562 0.09375 3.148438 -0.0195312 2.734375 -0.25 C 2.328125 -0.488281 2.003906 -0.800781 1.765625 -1.1875 L 1.765625 2.15625 C 1.765625 2.257812 1.726562 2.347656 1.65625 2.421875 C 1.582031 2.492188 1.488281 2.53125 1.375 2.53125 C 1.269531 2.53125 1.179688 2.492188 1.109375 2.421875 C 1.035156 2.347656 1 2.257812 1 2.15625 L 1 -6.109375 C 1 -6.210938 1.035156 -6.300781 1.109375 -6.375 C 1.179688 -6.457031 1.269531 -6.5 1.375 -6.5 C 1.488281 -6.5 1.582031 -6.457031 1.65625 -6.375 C 1.726562 -6.300781 1.765625 -6.210938 1.765625 -6.109375 L 1.765625 -5.25 C 1.984375 -5.644531 2.296875 -5.957031 2.703125 -6.1875 C 3.117188 -6.414062 3.578125 -6.53125 4.078125 -6.53125 Z M 4.015625 -0.625 C 4.453125 -0.625 4.847656 -0.734375 5.203125 -0.953125 C 5.554688 -1.179688 5.832031 -1.492188 6.03125 -1.890625 C 6.226562 -2.285156 6.328125 -2.734375 6.328125 -3.234375 C 6.328125 -3.722656 6.226562 -4.160156 6.03125 -4.546875 C 5.832031 -4.941406 5.554688 -5.25 5.203125 -5.46875 C 4.847656 -5.695312 4.453125 -5.8125 4.015625 -5.8125 C 3.566406 -5.8125 3.164062 -5.703125 2.8125 -5.484375 C 2.457031 -5.265625 2.179688 -4.957031 1.984375 -4.5625 C 1.796875 -4.175781 1.703125 -3.734375 1.703125 -3.234375 C 1.703125 -2.734375 1.796875 -2.285156 1.984375 -1.890625 C 2.179688 -1.492188 2.457031 -1.179688 2.8125 -0.953125 C 3.164062 -0.734375 3.566406 -0.625 4.015625 -0.625 Z M 4.015625 -0.625 "/></g></g></g><g fill="#ffd449" fill-opacity="1"><g transform="translate(231.062927, 321.792636)"><g><path d="M 4.03125 -6.625 C 4.195312 -6.625 4.347656 -6.585938 4.484375 -6.515625 C 4.617188 -6.453125 4.6875 -6.351562 4.6875 -6.21875 C 4.6875 -6.101562 4.648438 -6.007812 4.578125 -5.9375 C 4.515625 -5.863281 4.4375 -5.828125 4.34375 -5.828125 C 4.300781 -5.828125 4.21875 -5.847656 4.09375 -5.890625 C 3.976562 -5.929688 3.863281 -5.953125 3.75 -5.953125 C 3.4375 -5.953125 3.125 -5.832031 2.8125 -5.59375 C 2.507812 -5.351562 2.257812 -5.039062 2.0625 -4.65625 C 1.863281 -4.28125 1.765625 -3.898438 1.765625 -3.515625 L 1.765625 -0.375 C 1.765625 -0.269531 1.726562 -0.179688 1.65625 -0.109375 C 1.582031 -0.0351562 1.488281 0 1.375 0 C 1.269531 0 1.179688 -0.0351562 1.109375 -0.109375 C 1.035156 -0.179688 1 -0.269531 1 -0.375 L 1 -6.0625 C 1 -6.164062 1.035156 -6.253906 1.109375 -6.328125 C 1.179688 -6.398438 1.269531 -6.4375 1.375 -6.4375 C 1.488281 -6.4375 1.582031 -6.398438 1.65625 -6.328125 C 1.726562 -6.253906 1.765625 -6.164062 1.765625 -6.0625 L 1.765625 -4.9375 C 1.953125 -5.425781 2.242188 -5.828125 2.640625 -6.140625 C 3.035156 -6.453125 3.5 -6.613281 4.03125 -6.625 Z M 4.03125 -6.625 "/></g></g></g><g fill="#ffd449" fill-opacity="1"><g transform="translate(244.203874, 321.792636)"><g><path d="M 6.984375 -3.25 C 6.984375 -2.613281 6.84375 -2.035156 6.5625 -1.515625 C 6.28125 -1.003906 5.894531 -0.601562 5.40625 -0.3125 C 4.914062 -0.0195312 4.375 0.125 3.78125 0.125 C 3.175781 0.125 2.628906 -0.0195312 2.140625 -0.3125 C 1.648438 -0.601562 1.265625 -1.003906 0.984375 -1.515625 C 0.703125 -2.035156 0.5625 -2.613281 0.5625 -3.25 C 0.5625 -3.875 0.703125 -4.441406 0.984375 -4.953125 C 1.265625 -5.472656 1.648438 -5.878906 2.140625 -6.171875 C 2.628906 -6.472656 3.175781 -6.625 3.78125 -6.625 C 4.375 -6.625 4.914062 -6.472656 5.40625 -6.171875 C 5.894531 -5.878906 6.28125 -5.472656 6.5625 -4.953125 C 6.84375 -4.441406 6.984375 -3.875 6.984375 -3.25 Z M 6.21875 -3.25 C 6.21875 -3.75 6.113281 -4.203125 5.90625 -4.609375 C 5.695312 -5.015625 5.398438 -5.332031 5.015625 -5.5625 C 4.640625 -5.800781 4.226562 -5.921875 3.78125 -5.921875 C 3.320312 -5.921875 2.90625 -5.800781 2.53125 -5.5625 C 2.164062 -5.332031 1.875 -5.015625 1.65625 -4.609375 C 1.4375 -4.203125 1.328125 -3.75 1.328125 -3.25 C 1.328125 -2.75 1.4375 -2.296875 1.65625 -1.890625 C 1.875 -1.484375 2.164062 -1.160156 2.53125 -0.921875 C 2.90625 -0.691406 3.320312 -0.578125 3.78125 -0.578125 C 4.226562 -0.578125 4.640625 -0.691406 5.015625 -0.921875 C 5.398438 -1.148438 5.695312 -1.46875 5.90625 -1.875 C 6.113281 -2.28125 6.21875 -2.738281 6.21875 -3.25 Z M 6.21875 -3.25 "/></g></g></g><g fill="#ffd449" fill-opacity="1"><g transform="translate(260.004932, 321.792636)"><g><path d="M 3.796875 -6.625 C 4.191406 -6.625 4.5625 -6.578125 4.90625 -6.484375 C 5.25 -6.398438 5.523438 -6.28125 5.734375 -6.125 C 5.941406 -5.976562 6.046875 -5.816406 6.046875 -5.640625 C 6.046875 -5.546875 6.015625 -5.457031 5.953125 -5.375 C 5.890625 -5.300781 5.8125 -5.265625 5.71875 -5.265625 C 5.632812 -5.265625 5.5625 -5.28125 5.5 -5.3125 C 5.445312 -5.351562 5.390625 -5.40625 5.328125 -5.46875 C 5.210938 -5.582031 5.101562 -5.664062 5 -5.71875 C 4.875 -5.769531 4.707031 -5.816406 4.5 -5.859375 C 4.289062 -5.898438 4.070312 -5.921875 3.84375 -5.921875 C 3.375 -5.921875 2.945312 -5.800781 2.5625 -5.5625 C 2.175781 -5.320312 1.875 -5 1.65625 -4.59375 C 1.4375 -4.1875 1.328125 -3.738281 1.328125 -3.25 C 1.328125 -2.75 1.429688 -2.296875 1.640625 -1.890625 C 1.859375 -1.484375 2.15625 -1.160156 2.53125 -0.921875 C 2.90625 -0.691406 3.332031 -0.578125 3.8125 -0.578125 C 4.113281 -0.578125 4.351562 -0.601562 4.53125 -0.65625 C 4.71875 -0.707031 4.898438 -0.78125 5.078125 -0.875 C 5.140625 -0.90625 5.242188 -0.984375 5.390625 -1.109375 C 5.453125 -1.160156 5.507812 -1.203125 5.5625 -1.234375 C 5.613281 -1.265625 5.671875 -1.28125 5.734375 -1.28125 C 5.828125 -1.28125 5.90625 -1.25 5.96875 -1.1875 C 6.03125 -1.125 6.0625 -1.039062 6.0625 -0.9375 C 6.0625 -0.789062 5.957031 -0.632812 5.75 -0.46875 C 5.550781 -0.3125 5.273438 -0.171875 4.921875 -0.046875 C 4.566406 0.0664062 4.171875 0.125 3.734375 0.125 C 3.117188 0.125 2.570312 -0.0195312 2.09375 -0.3125 C 1.613281 -0.601562 1.238281 -1.003906 0.96875 -1.515625 C 0.695312 -2.035156 0.5625 -2.613281 0.5625 -3.25 C 0.5625 -3.875 0.695312 -4.441406 0.96875 -4.953125 C 1.238281 -5.460938 1.617188 -5.867188 2.109375 -6.171875 C 2.597656 -6.472656 3.160156 -6.625 3.796875 -6.625 Z M 3.796875 -6.625 "/></g></g></g><g fill="#ffd449" fill-opacity="1"><g transform="translate(274.779929, 321.792636)"><g><path d="M 6.46875 -3.609375 C 6.46875 -3.503906 6.429688 -3.414062 6.359375 -3.34375 C 6.285156 -3.28125 6.195312 -3.25 6.09375 -3.25 L 1.3125 -3.25 C 1.3125 -2.738281 1.410156 -2.28125 1.609375 -1.875 C 1.816406 -1.476562 2.113281 -1.160156 2.5 -0.921875 C 2.882812 -0.691406 3.335938 -0.578125 3.859375 -0.578125 C 4.265625 -0.578125 4.628906 -0.660156 4.953125 -0.828125 C 5.273438 -1.003906 5.535156 -1.222656 5.734375 -1.484375 C 5.816406 -1.554688 5.90625 -1.59375 6 -1.59375 C 6.082031 -1.59375 6.15625 -1.554688 6.21875 -1.484375 C 6.289062 -1.421875 6.328125 -1.347656 6.328125 -1.265625 C 6.328125 -1.171875 6.285156 -1.082031 6.203125 -1 C 5.929688 -0.664062 5.585938 -0.394531 5.171875 -0.1875 C 4.765625 0.0195312 4.332031 0.125 3.875 0.125 C 3.226562 0.125 2.65625 -0.0078125 2.15625 -0.28125 C 1.65625 -0.5625 1.265625 -0.953125 0.984375 -1.453125 C 0.703125 -1.960938 0.5625 -2.546875 0.5625 -3.203125 C 0.5625 -3.898438 0.695312 -4.503906 0.96875 -5.015625 C 1.25 -5.535156 1.617188 -5.929688 2.078125 -6.203125 C 2.535156 -6.484375 3.019531 -6.625 3.53125 -6.625 C 4.039062 -6.625 4.515625 -6.503906 4.953125 -6.265625 C 5.398438 -6.035156 5.765625 -5.691406 6.046875 -5.234375 C 6.328125 -4.773438 6.46875 -4.234375 6.46875 -3.609375 Z M 3.53125 -5.890625 C 3.039062 -5.890625 2.585938 -5.71875 2.171875 -5.375 C 1.753906 -5.039062 1.488281 -4.554688 1.375 -3.921875 L 5.6875 -3.921875 L 5.6875 -4.03125 C 5.644531 -4.40625 5.519531 -4.734375 5.3125 -5.015625 C 5.101562 -5.304688 4.835938 -5.523438 4.515625 -5.671875 C 4.203125 -5.816406 3.875 -5.890625 3.53125 -5.890625 Z M 3.53125 -5.890625 "/></g></g></g><g fill="#ffd449" fill-opacity="1"><g transform="translate(290.086948, 321.792636)"><g><path d="M 0.640625 -1.03125 C 0.566406 -1.132812 0.53125 -1.226562 0.53125 -1.3125 C 0.53125 -1.414062 0.585938 -1.5 0.703125 -1.5625 C 0.742188 -1.613281 0.8125 -1.640625 0.90625 -1.640625 C 1 -1.640625 1.085938 -1.597656 1.171875 -1.515625 C 1.671875 -0.847656 2.335938 -0.515625 3.171875 -0.515625 C 3.578125 -0.515625 3.925781 -0.609375 4.21875 -0.796875 C 4.519531 -0.992188 4.671875 -1.273438 4.671875 -1.640625 C 4.671875 -1.992188 4.53125 -2.257812 4.25 -2.4375 C 3.976562 -2.613281 3.59375 -2.765625 3.09375 -2.890625 C 2.394531 -3.066406 1.84375 -3.296875 1.4375 -3.578125 C 1.039062 -3.859375 0.84375 -4.273438 0.84375 -4.828125 C 0.84375 -5.171875 0.941406 -5.476562 1.140625 -5.75 C 1.335938 -6.03125 1.601562 -6.242188 1.9375 -6.390625 C 2.269531 -6.546875 2.644531 -6.625 3.0625 -6.625 C 3.425781 -6.625 3.789062 -6.550781 4.15625 -6.40625 C 4.53125 -6.269531 4.847656 -6.050781 5.109375 -5.75 C 5.179688 -5.695312 5.21875 -5.613281 5.21875 -5.5 C 5.21875 -5.394531 5.175781 -5.304688 5.09375 -5.234375 C 5.03125 -5.179688 4.953125 -5.15625 4.859375 -5.15625 C 4.773438 -5.15625 4.703125 -5.191406 4.640625 -5.265625 C 4.429688 -5.484375 4.1875 -5.648438 3.90625 -5.765625 C 3.632812 -5.890625 3.335938 -5.953125 3.015625 -5.953125 C 2.617188 -5.953125 2.28125 -5.859375 2 -5.671875 C 1.71875 -5.484375 1.578125 -5.207031 1.578125 -4.84375 C 1.585938 -4.5 1.738281 -4.238281 2.03125 -4.0625 C 2.320312 -3.882812 2.75 -3.726562 3.3125 -3.59375 C 3.757812 -3.476562 4.125 -3.351562 4.40625 -3.21875 C 4.695312 -3.082031 4.929688 -2.890625 5.109375 -2.640625 C 5.296875 -2.398438 5.390625 -2.078125 5.390625 -1.671875 C 5.390625 -1.117188 5.164062 -0.679688 4.71875 -0.359375 C 4.28125 -0.0351562 3.738281 0.125 3.09375 0.125 C 2.0625 0.125 1.242188 -0.257812 0.640625 -1.03125 Z M 0.640625 -1.03125 "/></g></g></g><g fill="#ffd449" fill-opacity="1"><g transform="translate(304.291926, 321.792636)"><g><path d="M 0.640625 -1.03125 C 0.566406 -1.132812 0.53125 -1.226562 0.53125 -1.3125 C 0.53125 -1.414062 0.585938 -1.5 0.703125 -1.5625 C 0.742188 -1.613281 0.8125 -1.640625 0.90625 -1.640625 C 1 -1.640625 1.085938 -1.597656 1.171875 -1.515625 C 1.671875 -0.847656 2.335938 -0.515625 3.171875 -0.515625 C 3.578125 -0.515625 3.925781 -0.609375 4.21875 -0.796875 C 4.519531 -0.992188 4.671875 -1.273438 4.671875 -1.640625 C 4.671875 -1.992188 4.53125 -2.257812 4.25 -2.4375 C 3.976562 -2.613281 3.59375 -2.765625 3.09375 -2.890625 C 2.394531 -3.066406 1.84375 -3.296875 1.4375 -3.578125 C 1.039062 -3.859375 0.84375 -4.273438 0.84375 -4.828125 C 0.84375 -5.171875 0.941406 -5.476562 1.140625 -5.75 C 1.335938 -6.03125 1.601562 -6.242188 1.9375 -6.390625 C 2.269531 -6.546875 2.644531 -6.625 3.0625 -6.625 C 3.425781 -6.625 3.789062 -6.550781 4.15625 -6.40625 C 4.53125 -6.269531 4.847656 -6.050781 5.109375 -5.75 C 5.179688 -5.695312 5.21875 -5.613281 5.21875 -5.5 C 5.21875 -5.394531 5.175781 -5.304688 5.09375 -5.234375 C 5.03125 -5.179688 4.953125 -5.15625 4.859375 -5.15625 C 4.773438 -5.15625 4.703125 -5.191406 4.640625 -5.265625 C 4.429688 -5.484375 4.1875 -5.648438 3.90625 -5.765625 C 3.632812 -5.890625 3.335938 -5.953125 3.015625 -5.953125 C 2.617188 -5.953125 2.28125 -5.859375 2 -5.671875 C 1.71875 -5.484375 1.578125 -5.207031 1.578125 -4.84375 C 1.585938 -4.5 1.738281 -4.238281 2.03125 -4.0625 C 2.320312 -3.882812 2.75 -3.726562 3.3125 -3.59375 C 3.757812 -3.476562 4.125 -3.351562 4.40625 -3.21875 C 4.695312 -3.082031 4.929688 -2.890625 5.109375 -2.640625 C 5.296875 -2.398438 5.390625 -2.078125 5.390625 -1.671875 C 5.390625 -1.117188 5.164062 -0.679688 4.71875 -0.359375 C 4.28125 -0.0351562 3.738281 0.125 3.09375 0.125 C 2.0625 0.125 1.242188 -0.257812 0.640625 -1.03125 Z M 0.640625 -1.03125 "/></g></g></g></svg>