<svg width="80" height="80" viewBox="0 0 80 80" fill="none" xmlns="http://www.w3.org/2000/svg">
<g id="mdi-light:arrow-right-circle" opacity="0.2">
<path id="Vector" d="M60.0002 40H32.5002L43.3335 29.1667L41.1002 26.6667L26.1002 41.6667L41.1002 56.6667L43.3335 54.1667L32.5002 43.3333H60.0002V40ZM10.0002 41.6667C10.0002 50.0652 13.3365 58.1197 19.2751 64.0584C25.2138 69.997 33.2683 73.3333 41.6668 73.3333C59.1335 73.3333 73.3335 59.1667 73.3335 41.6667C73.3335 33.2681 69.9972 25.2136 64.0585 19.275C58.1199 13.3363 50.0654 10 41.6668 10C33.2683 10 25.2138 13.3363 19.2751 19.275C13.3365 25.2136 10.0002 33.2681 10.0002 41.6667ZM13.3335 41.6667C13.3335 34.1522 16.3186 26.9455 21.6321 21.632C26.9457 16.3184 34.1524 13.3333 41.6668 13.3333C49.1813 13.3333 56.388 16.3184 61.7015 21.632C67.0151 26.9455 70.0002 34.1522 70.0002 41.6667C70.0002 49.1811 67.0151 56.3878 61.7015 61.7014C56.388 67.0149 49.1813 70 41.6668 70C37.946 70 34.2617 69.2671 30.8241 67.8433C27.3866 66.4194 24.2631 64.3324 21.6321 61.7014C19.0011 59.0704 16.9141 55.9469 15.4902 52.5094C14.0664 49.0718 13.3335 45.3875 13.3335 41.6667Z" fill="#A9339A"/>
</g>
</svg>
