<svg width="80" height="80" viewBox="0 0 80 80" fill="none" xmlns="http://www.w3.org/2000/svg">
<g id="mdi-light:arrow-right-circle">
<path id="Vector" d="M20.0001 40H47.5001L36.6667 29.1667L38.9001 26.6667L53.9001 41.6667L38.9001 56.6667L36.6667 54.1667L47.5001 43.3333H20.0001V40ZM70.0001 41.6667C70.0001 50.0652 66.6638 58.1197 60.7251 64.0584C54.7865 69.997 46.7319 73.3333 38.3334 73.3333C20.8667 73.3333 6.66675 59.1667 6.66675 41.6667C6.66675 33.2681 10.003 25.2136 15.9417 19.275C21.8804 13.3363 29.9349 10 38.3334 10C46.7319 10 54.7865 13.3363 60.7251 19.275C66.6638 25.2136 70.0001 33.2681 70.0001 41.6667ZM66.6667 41.6667C66.6667 34.1522 63.6816 26.9455 58.3681 21.632C53.0546 16.3184 45.8479 13.3333 38.3334 13.3333C30.8189 13.3333 23.6123 16.3184 18.2987 21.632C12.9852 26.9455 10.0001 34.1522 10.0001 41.6667C10.0001 49.1811 12.9852 56.3878 18.2987 61.7014C23.6123 67.0149 30.8189 70 38.3334 70C42.0542 70 45.7386 69.2671 49.1761 67.8433C52.6137 66.4194 55.7371 64.3324 58.3681 61.7014C60.9991 59.0704 63.0861 55.9469 64.51 52.5094C65.9339 49.0718 66.6667 45.3875 66.6667 41.6667Z" fill="#A9339A"/>
</g>
</svg>
